<?xml version="1.0" standalone="no"?><!DOCTYPE svg PUBLIC "-//W3C//DTD SVG 1.1//EN" "http://www.w3.org/Graphics/SVG/1.1/DTD/svg11.dtd"><svg t="1573247993684" class="icon" viewBox="0 0 1024 1024" version="1.1" xmlns="http://www.w3.org/2000/svg" p-id="11809" xmlns:xlink="http://www.w3.org/1999/xlink" width="200" height="200"><defs><style type="text/css"></style></defs><path d="M 909.812 962.028 c -13.094 0 -26.188 -4.996 -36.179 -14.987 L 73.958 147.368 c -19.98 -19.98 -19.98 -52.378 0 -72.359 c 19.983 -19.98 52.38 -19.98 72.36 0 L 945.99 874.683 c 19.981 19.981 19.981 52.378 0 72.36 c -9.99 9.99 -23.084 14.985 -36.179 14.985 Z" fill="#8a8a8a" p-id="11810"></path><path d="M 110.138 962.028 c -13.094 0 -26.188 -4.996 -36.179 -14.987 c -19.98 -19.98 -19.98 -52.378 0 -72.359 L 873.632 75.01 c 19.982 -19.98 52.377 -19.98 72.36 0 c 19.98 19.981 19.98 52.378 0 72.36 L 146.316 947.041 c -9.99 9.99 -23.084 14.986 -36.179 14.986 Z" fill="#8a8a8a" p-id="11811"></path></svg>