<?xml version="1.0" standalone="no"?><!DOCTYPE svg PUBLIC "-//W3C//DTD SVG 1.1//EN" "http://www.w3.org/Graphics/SVG/1.1/DTD/svg11.dtd"><svg t="1572979404215" class="icon" viewBox="0 0 1024 1024" version="1.1" xmlns="http://www.w3.org/2000/svg" p-id="50518" xmlns:xlink="http://www.w3.org/1999/xlink" width="200" height="200"><defs><style type="text/css"></style></defs><path d="M102.262118 0h819.475764v1024l-409.967685-176.48833-409.048473 176.48833z" fill="#2196F3" p-id="50519" data-spm-anchor-id="a313x.7781069.0.i34" class="selected"></path><path d="M261.745063 260.136445h183.842011v35.849192H379.863555v330.91562c0 39.526032-20.222621 58.829443-60.667864 58.829443h-40.445242a409.967684 409.967684 0 0 0-7.813286-45.960503 225.206463 225.206463 0 0 0 45.960503 5.055656c15.626571 0 23.439856-7.35368 23.439856-22.520647v-326.319569H261.745063z m312.071813 150.290844h40.445242v54.233393a367.684022 367.684022 0 0 1-15.62657 107.087972c55.612208 35.389587 106.168761 70.319569 152.129263 104.789946l-27.576301 33.091562a1731.332136 1731.332136 0 0 0-137.881508-103.870737 117.199282 117.199282 0 0 1-11.030521 17.924597 269.328546 269.328546 0 0 1-143.856373 85.94614 372.280072 372.280072 0 0 0-23.899462-35.849193 252.782765 252.782765 0 0 0 131.906643-73.996409 219.231598 219.231598 0 0 0 34.010772-134.204668z m-113.522442-59.748653h91.921006l16.086176-66.642729H454.779174v-34.010772h294.147217v35.849192h-142.477558l-15.626571 66.642729h137.881508v236.236983h-38.147217V387.906643H498.441652v203.145422h-38.147218z" fill="#ffffff" p-id="50520" data-spm-anchor-id="a313x.7781069.0.i36" class="selected"></path></svg>