<?xml version="1.0" standalone="no"?><!DOCTYPE svg PUBLIC "-//W3C//DTD SVG 1.1//EN" "http://www.w3.org/Graphics/SVG/1.1/DTD/svg11.dtd"><svg t="1573243219857" class="icon" viewBox="0 0 1024 1024" version="1.1" xmlns="http://www.w3.org/2000/svg" p-id="4601" xmlns:xlink="http://www.w3.org/1999/xlink" width="200" height="200"><defs><style type="text/css"></style></defs><path d="M306.631111 196.835556h42.666667v150.328888H200.106667v-36.835555a28.444444 28.444444 0 1 0-56.888889 0v65.706667a28.444444 28.444444 0 0 0 28.444444 28.444444h206.791111a28.444444 28.444444 0 0 0 28.444445-28.444444V167.964444a28.444444 28.444444 0 0 0-28.444445-28.444444h-71.822222a28.444444 28.444444 0 0 0 0 57.742222zM378.453333 624.497778H171.377778a28.444444 28.444444 0 0 0-28.444445 28.444444v208.497778a28.444444 28.444444 0 0 0 28.444445 28.444444h207.075555a28.444444 28.444444 0 0 0 28.444445-28.444444V653.368889a28.444444 28.444444 0 0 0-28.444445-28.871111z m-28.444444 208.071111H200.106667V682.666667h149.617777zM861.582222 624.497778H654.222222a28.444444 28.444444 0 0 0-28.444444 28.444444v208.497778a28.444444 28.444444 0 0 0 28.444444 28.444444 236.657778 236.657778 0 0 0 236.088889-236.515555 28.444444 28.444444 0 0 0-28.728889-28.871111zM682.666667 830.293333V682.666667h147.911111A179.484444 179.484444 0 0 1 682.666667 830.293333zM861.582222 139.093333H654.222222a28.444444 28.444444 0 0 0-28.444444 28.444445v208.497778a28.444444 28.444444 0 0 0 28.444444 28.444444h207.36a28.444444 28.444444 0 0 0 28.444445-28.444444V167.964444a28.444444 28.444444 0 0 0-28.444445-28.871111z m-28.444444 208.071111H682.666667V196.835556h150.186666z" fill="#6B6B6B" p-id="4602"></path><path d="M654.222222 543.573333a28.444444 28.444444 0 0 0 0-57.742222h-108.942222v-109.795555a28.444444 28.444444 0 1 0-57.6 0v109.795555H171.377778a28.444444 28.444444 0 0 0 0 57.742222h316.302222v109.795556a28.444444 28.444444 0 1 0 57.6 0v-109.795556zM516.551111 307.768889a28.444444 28.444444 0 0 0 28.444445-28.444445v-110.933333a28.444444 28.444444 0 1 0-57.6 0v110.933333a28.444444 28.444444 0 0 0 29.155555 28.444445zM861.582222 485.831111h-110.364444a28.444444 28.444444 0 1 0 0 57.742222h110.364444a28.444444 28.444444 0 0 0 0-57.742222zM516.551111 721.635556a28.444444 28.444444 0 0 0-28.444444 28.444444v110.933333a28.444444 28.444444 0 1 0 57.6 0v-110.933333a28.444444 28.444444 0 0 0-29.155556-28.444444zM171.377778 209.493333a37.973333 37.973333 0 1 0-37.688889-37.973333 37.831111 37.831111 0 0 0 37.688889 37.973333z" fill="#6B6B6B" p-id="4603"></path></svg>