<?xml version="1.0" standalone="no"?><!DOCTYPE svg PUBLIC "-//W3C//DTD SVG 1.1//EN" "http://www.w3.org/Graphics/SVG/1.1/DTD/svg11.dtd"><svg t="1572992826082" class="icon" viewBox="0 0 1024 1024" version="1.1" xmlns="http://www.w3.org/2000/svg" p-id="51739" xmlns:xlink="http://www.w3.org/1999/xlink" width="200" height="200"><defs><style type="text/css"></style></defs><path d="M192.891259 751.80563h4.28563l207.227259-45.24563a20.404148 20.404148 0 0 0 10.733037-5.385481l351.118222-352.407704a136.154074 136.154074 0 0 0 39.746371-96.976593 140.401778 140.401778 0 0 0-39.746371-98.076444A134.826667 134.826667 0 0 0 669.658074 113.777778a131.716741 131.716741 0 0 0-96.635259 40.96l-350.056296 352.407703a19.493926 19.493926 0 0 0-6.447408 9.709038L171.425185 724.840296a23.893333 23.893333 0 0 0 6.447408 20.48 21.579852 21.579852 0 0 0 15.018666 6.485334zM669.658074 156.899556a93.601185 93.601185 0 0 1 93.411556 93.752888v1.099852a90.605037 90.605037 0 0 1-26.851556 65.72563L604.16 183.826963a92.235852 92.235852 0 0 1 65.498074-26.927407z m-95.573333 58.17837l132.096 132.551111-306.024297 306.062222-132.096-131.451259 306.024297-307.162074z m-323.204741 350.283852l106.30637 106.685629-136.381629 30.189037 30.075259-136.874666z" fill="#888888" p-id="51740"></path><path d="M192.891259 761.249185h-0.113778a31.175111 31.175111 0 0 1-21.655703-9.291852 33.374815 33.374815 0 0 1-9.026371-28.634074l45.169778-208.51674a29.089185 29.089185 0 0 1 9.746963-15.056593l349.259852-351.725037a141.880889 141.880889 0 0 1 102.21037-43.728593h2.23763a145.256296 145.256296 0 0 1 102.324148 42.666667 149.200593 149.200593 0 0 1 42.477037 104.789333 146.318222 146.318222 0 0 1-42.514963 103.689482l-351.118222 352.407703a30.340741 30.340741 0 0 1-15.928889 8.040297l-213.067852 45.359407z m32.730074-241.777778l-44.942222 207.378963a14.184296 14.184296 0 0 0 3.944296 11.832889 12.022519 12.022519 0 0 0 8.343704 3.602963h4.209778l205.217185-45.056a11.301926 11.301926 0 0 0 6.219852-2.996148l350.966518-352.218074c23.703704-23.74163 37.167407-56.623407 36.977778-90.263704a130.23763 130.23763 0 0 0-37.053629-91.515259 126.369185 126.369185 0 0 0-88.974223-37.015704h-1.934222c-33.450667 0-65.687704 13.805037-88.784592 38.001778M208.365037 714.714074l36.977778-168.353185 130.730666 131.223704-167.708444 37.129481z m48.052148-130.389333l-23.172741 105.434074 105.054815-23.210667-81.882074-82.223407z m143.739259 82.792296l-145.483851-144.877037 319.412148-320.587852 145.483852 146.014815-319.412149 319.450074z m-118.708148-144.914963l118.632297 118.101333 292.636444-292.67437-118.670222-119.125333-292.598519 293.69837zM736.142222 330.865778l-145.370074-147.076741 6.674963-6.674963a100.958815 100.958815 0 0 1 71.793778-29.733926h0.493037a103.158519 103.158519 0 0 1 102.855111 103.234371 100.996741 100.996741 0 0 1-29.658074 73.53837l-6.788741 6.712889z m-118.253037-146.583704l117.987556 119.390815c11.643259-14.601481 18.014815-32.995556 17.711407-51.768889 0-47.672889-37.660444-85.485037-83.930074-85.485037h-0.037926c-18.735407 0.948148-37.015704 6.144-51.730963 17.863111z" fill="#888888" p-id="51741"></path><path d="M869.906963 867.403852H154.093037a21.390222 21.390222 0 0 0 0 42.81837h715.776a21.390222 21.390222 0 0 0 0.037926-42.81837z" fill="#888888" p-id="51742"></path><path d="M869.906963 919.703704H154.093037a30.871704 30.871704 0 0 1 0-61.743408h715.776a30.90963 30.90963 0 0 1 0.037926 61.743408zM154.093037 876.885333a11.908741 11.908741 0 0 0 0 23.817482h715.776a11.908741 11.908741 0 0 0 0-23.817482H154.093037z" fill="#888888" p-id="51743"></path></svg>