<?xml version="1.0" standalone="no"?><!DOCTYPE svg PUBLIC "-//W3C//DTD SVG 1.1//EN" "http://www.w3.org/Graphics/SVG/1.1/DTD/svg11.dtd"><svg t="1576089497309" class="icon" viewBox="0 0 1024 1024" version="1.1" xmlns="http://www.w3.org/2000/svg" p-id="1178" xmlns:xlink="http://www.w3.org/1999/xlink" width="200" height="200"><defs><style type="text/css"></style></defs><path d="M848.596 516.219c-0.019 0-0.038 0-0.060 0-13.493 0-24.434 10.921-24.469 24.405v230.528c0 29.591-24.167 53.638-53.88 53.638h-516.917c-0.019 0-0.039 0-0.061 0-29.66 0-53.716-23.993-53.819-53.628v-484.141c0-29.531 24.167-53.638 53.88-53.638h168.508c0.514 0.038 1.113 0.060 1.717 0.060 13.514 0 24.469-10.955 24.469-24.469 0-13.514-10.955-24.469-24.469-24.469-0.604 0-1.203 0.022-1.795 0.065l-168.429-0.006c-56.711 0.060-102.877 45.984-102.877 102.516v484.071c0 56.531 46.164 102.456 102.877 102.456h516.917c56.711 0 102.877-45.924 102.877-102.456v-230.524c-0.035-13.488-10.975-24.409-24.469-24.409 0 0 0 0 0 0zM334.511 659.114c-0.255 1.323-0.4 2.844-0.4 4.4 0 13.48 10.928 24.409 24.409 24.409 0.035 0 0.069 0 0.104 0 0.008 0 0.025 0 0.043 0 11.937 0 21.877-8.548 24.035-19.856 0.204-1.178 19.611-103.753 87.293-205.667 39.354-59.364 87.026-106.554 141.75-140.304 58.817-36.378 129.538-59.070 205.328-62.022l-109.020 84.082c-4.326 4.383-6.998 10.409-6.998 17.058 0 13.414 10.874 24.289 24.289 24.289 0.109 0 0.218-0.001 0.324-0.003-0.001 0 0.019 0 0.037 0 6.878 0 13.094-2.839 17.54-7.407l123.735-127.11c1.453-1.633 2.598-3.577 3.322-5.713l-2.538 4.869v-0.060l0.422-0.482c1.070-1.351 1.894-2.948 2.377-4.69l-1.653 3.787 0.362-0.602 0.302-0.362 0.242-0.362 0.060-0.18 0.060-0.060 0.242-0.422 0.362-0.602 0.242-0.362 0.060-0.18 0.242-0.542 0.242-0.422c0.804-1.493 1.386-3.231 1.647-5.072l-1.165 3.928 0.242-0.602 0.18-0.542 0.18-0.482c0.604-1.384 1.026-2.988 1.186-4.669l-0.824 3.463c0.376-1.122 0.627-2.421 0.703-3.766l-0.462 2.742v-0.12l0.18-0.602c0.301-2.214 0.73-4.173 1.299-6.072l-1.118 4.566 0.12-0.482v-0.664l0.060-0.602v-0.542l0.060-0.784v-1.507l-0.12-0.844v-0.422l-0.12-0.724c-0.030-0.345-0.083-0.662-0.16-0.967l-0.021-0.117-0.12-0.422v-0.18c-0.31-1.451-0.763-2.733-1.357-3.931l0.936 2.364c-0.449-1.696-1.061-3.18-1.839-4.557l1.537 3.532-0.242-0.602v-0.18l-0.12-0.242v-0.12c-1.298-2.65-2.938-4.917-4.9-6.86 4.598 6.076 4.478 5.956 4.418 5.835l-0.302-0.664c-1.959-3.895-4.516-7.197-7.591-9.932l6.205 7.46-0.362-0.602-0.242-0.302-0.18-0.242c0-0.12-0.12-0.18-0.18-0.242l-0.12-0.18c0-0.12-0.12-0.18-0.18-0.242l-0.362-0.482-0.242-0.242c0-0.060 0-0.12-0.12-0.18l-0.482-0.602-0.12-0.12c-1.878-1.975-4.147-3.56-6.686-4.632l5.902 3.847c-2.564-2.604-5.675-4.658-9.15-5.977l7.402 4.409c-2.803-2.304-6.125-4.097-9.753-5.175l8.788 4.393c-2.365-1.784-5.16-3.143-8.192-3.907l6.805 2.943-0.362-0.18-0.362-0.242c-0.12 0-0.18-0.12-0.302-0.18l-0.362-0.18-0.422-0.242c-1.682-0.902-3.642-1.553-5.717-1.849l4.632 1.306c-1.494-0.762-3.238-1.277-5.083-1.44 1.848 0.116 0.751-0.173-0.4-0.274l-177.43-58.735c-2.302-0.794-4.955-1.252-7.714-1.252-13.473 0-24.395 10.922-24.395 24.395 0 10.713 6.906 19.813 16.508 23.092l72.493 23.917c-53.156 11.451-102.456 31.099-147.476 58.821-60.75 37.487-113.544 89.557-156.877 154.888-73.044 110.109-93.656 218.953-94.56 223.534z" p-id="1179" fill="#707070"></path></svg>