<?xml version="1.0" standalone="no"?><!DOCTYPE svg PUBLIC "-//W3C//DTD SVG 1.1//EN" "http://www.w3.org/Graphics/SVG/1.1/DTD/svg11.dtd"><svg t="1573243379336" class="icon" viewBox="0 0 1024 1024" version="1.1" xmlns="http://www.w3.org/2000/svg" p-id="5616" xmlns:xlink="http://www.w3.org/1999/xlink" width="200" height="200"><defs><style type="text/css"></style></defs><path d="M647.353312 399.602928l-426.623018 0.009031a23.597425 23.597425 0 0 0-23.65161 23.498086 23.606456 23.606456 0 0 0 23.65161 23.516148l426.623018-0.009031a23.597425 23.597425 0 0 0 23.624517-23.516148c0-6.25833-2.429279-12.137367-6.8363-16.571479a23.534209 23.534209 0 0 0-16.788217-6.926607zM647.353312 578.746486l-426.623018 0.00903a23.597425 23.597425 0 0 0-23.65161 23.498087 23.606456 23.606456 0 0 0 23.65161 23.516147l426.623018-0.00903a23.597425 23.597425 0 0 0 23.624517-23.516148c0-6.25833-2.429279-12.137367-6.8363-16.571479a23.534209 23.534209 0 0 0-16.788217-6.926607zM481.250198 757.890043l-260.519904 0.009031a23.597425 23.597425 0 0 0-23.65161 23.498086 23.606456 23.606456 0 0 0 23.65161 23.516148l260.519904-0.009031a23.588394 23.588394 0 0 0 23.624518-23.507117c0-6.25833-2.429279-12.137367-6.8363-16.571479a23.470994 23.470994 0 0 0-16.788218-6.935638z" fill="#040000" p-id="5617"></path><path d="M872.228733 46.029879H310.767158c-14.142199 0-102.074892 0-102.074892 101.749784v72.932569h-55.476074c-14.142199 0-102.074892 0-102.074892 101.749784V882.036158c0 101.749784 102.074892 101.749784 102.074892 101.749784h561.461575c29.449369 0 50.156945-8.552147 65.120945-20.635329 0.921139-0.758585 1.941617-1.426863 2.862757-2.176418a90.307787 90.307787 0 0 0 9.328795-9.482317c0.758585-1.011447 1.426863-1.923556 2.194479-3.025311 22.567916-29.359062 22.73047-66.511685 22.73047-66.511686v-72.851292h55.304489c29.4584 0 50.156945-8.552147 65.120945-20.635329 0.921139-0.758585 1.941617-1.426863 2.862757-2.176418a90.307787 90.307787 0 0 0 9.328795-9.482317c0.758585-1.011447 1.426863-1.923556 2.194479-3.025311 22.567916-29.359062 22.73047-66.511685 22.73047-66.511686V147.779663c-0.081277-101.749784-88.095246-101.749784-102.228415-101.749784zM772.601182 849.733063s-0.090308 32.835911-20.084452 58.826493a24.563718 24.563718 0 0 1-1.923556 2.700202 65.834377 65.834377 0 0 1-8.208978 8.371532l-2.519587 1.923556c-13.22106 10.692442-31.598695 18.296358-57.571215 18.296358H185.519287s-90.316818 0-90.316818-90.036864V354.728988c0-90.036864 77.863374-90.036864 90.316818-90.036863h496.774107c12.570844 0 90.316818 0 90.316819 90.036863l-0.009031 495.004075z m157.550965-174.673322s-0.090308 32.835911-20.084451 58.826492a24.563718 24.563718 0 0 1-1.923556 2.700203 65.834377 65.834377 0 0 1-8.208978 8.371532l-2.519587 1.923556c-13.22106 10.692442-31.598695 18.296358-57.571215 18.296358h-22.938178V322.452985C816.824905 220.712232 728.801905 220.712232 714.668736 220.712232H252.753435v-40.665596c0-90.036864 77.863374-90.036864 90.316818-90.036864h496.774107c12.570844 0 90.316818 0 90.316818 90.036864l-0.009031 495.013105z" fill="#040000" p-id="5618"></path></svg>