<?xml version="1.0" standalone="no"?><!DOCTYPE svg PUBLIC "-//W3C//DTD SVG 1.1//EN" "http://www.w3.org/Graphics/SVG/1.1/DTD/svg11.dtd"><svg t="1573144277656" class="icon" viewBox="0 0 1024 1024" version="1.1" xmlns="http://www.w3.org/2000/svg" p-id="10111" xmlns:xlink="http://www.w3.org/1999/xlink" width="200" height="200"><defs><style type="text/css"></style></defs><path d="M0 512a512 512 0 1 0 1024 0A512 512 0 1 0 0 512z" fill="#F15A59" p-id="10112"></path><path d="M512 236.308c23.63 0 39.385 15.754 39.385 39.384V590.77c0 23.631-15.754 39.385-39.385 39.385s-39.385-15.754-39.385-39.385V275.692c0-23.63 15.754-39.384 39.385-39.384zM472.615 748.308a39.385 39.385 0 1 0 78.77 0 39.385 39.385 0 1 0-78.77 0z" fill="#FFFFFF" p-id="10113"></path></svg>