<?xml version="1.0" standalone="no"?><!DOCTYPE svg PUBLIC "-//W3C//DTD SVG 1.1//EN" "http://www.w3.org/Graphics/SVG/1.1/DTD/svg11.dtd"><svg t="1573904779675" class="icon" viewBox="0 0 1024 1024" version="1.1" xmlns="http://www.w3.org/2000/svg" p-id="3883" xmlns:xlink="http://www.w3.org/1999/xlink" width="200" height="200"><defs><style type="text/css"></style></defs><path d="M397.208879 397.208879m-66.529507 0a66.529507 66.529507 0 1 0 133.059015 0 66.529507 66.529507 0 1 0-133.059015 0Z" p-id="3884" data-spm-anchor-id="a313x.7781069.0.i10" class="selected" fill="#d4237a"></path><path d="M512 0a512 512 0 1 0 512 512A511.667352 511.667352 0 0 0 512 0z m305.924851 574.288251l-243.6366 243.6366a49.204115 49.204115 0 0 1-69.606497 0l-313.243097-313.243097 52.197943-261.045154 261.045154-52.197943 313.243097 313.243097a49.204115 49.204115 0 0 1 0 69.606497z" p-id="3885" data-spm-anchor-id="a313x.7781069.0.i12" class="selected" fill="#d4237a"></path></svg>