<?xml version="1.0" standalone="no"?><!DOCTYPE svg PUBLIC "-//W3C//DTD SVG 1.1//EN" "http://www.w3.org/Graphics/SVG/1.1/DTD/svg11.dtd"><svg t="1574346710159" class="icon" viewBox="0 0 1024 1024" version="1.1" xmlns="http://www.w3.org/2000/svg" p-id="3262" xmlns:xlink="http://www.w3.org/1999/xlink" width="200" height="200"><defs><style type="text/css"></style></defs><path d="M370.859 877.124c-7.134 0-10.718-3.584-14.302-7.134-3.584-7.133-3.584-14.301 0-17.885 17.886-28.604 21.436-57.208 14.302-85.812v-3.584h-3.584C238.592 709.086 152.78 598.255 152.78 476.706c0-171.588 164.454-314.607 371.78-314.607s371.78 142.985 371.78 314.607-157.286 307.44-357.478 314.573h-3.584c-7.134 10.786-75.025 75.127-164.42 85.845z m153.736-679.219c-185.89 0-336.042 125.133-336.042 278.835 0 107.247 75.059 203.776 189.474 250.232l10.718 7.134c3.584 3.584 10.717 7.133 10.717 10.717l3.584 10.718c7.134 25.02 7.134 53.624-3.584 78.644 60.758-17.886 107.247-64.342 107.247-64.342l7.134-7.134c3.584-3.584 7.134-3.584 10.718-7.134h10.718c182.306-3.584 325.325-128.682 325.325-278.835 0.034-153.702-150.119-278.835-336.009-278.835z m146.569 250.232H378.027c-10.718 0-17.886-7.134-17.886-17.886s7.134-17.886 17.886-17.886h293.137c10.718 0 17.886 7.134 17.886 17.886s-7.168 17.886-17.886 17.886z m-121.55 107.246H378.028c-10.718 0-17.886-7.133-17.886-17.885 0-10.718 7.134-17.886 17.886-17.886h171.588c10.718 0 17.886 7.134 17.886 17.886 0 10.752-7.168 17.885-17.886 17.885z" p-id="3263"></path></svg>