<?xml version="1.0" standalone="no"?><!DOCTYPE svg PUBLIC "-//W3C//DTD SVG 1.1//EN" "http://www.w3.org/Graphics/SVG/1.1/DTD/svg11.dtd"><svg t="1574685787599" class="icon" viewBox="0 0 1362 1024" version="1.1" xmlns="http://www.w3.org/2000/svg" p-id="16906" xmlns:xlink="http://www.w3.org/1999/xlink" width="266.015625" height="200"><defs><style type="text/css"></style></defs><path d="M82.498441 930.555902a621.060669 621.060669 0 1 1 1077.195226 0M82.498441 930.555902a621.060669 621.060669 0 1 1 1077.195226 0" fill="#ECF6FF" p-id="16907" data-spm-anchor-id="a313x.7781069.0.i33" class=""></path><path d="M743.151727 530.403063v110.065752a24.66991 24.66991 0 0 1-24.411135 24.756168H565.890661a24.66991 24.66991 0 0 1-24.497393-24.756168V530.403063a24.583651 24.583651 0 0 0-24.497393-24.756169H351.883506A24.583651 24.583651 0 0 0 327.817405 530.403063v331.663648a24.583651 24.583651 0 0 0 24.497393 24.756169h580.777984a24.583651 24.583651 0 0 0 24.411134-24.756169V530.403063a24.583651 24.583651 0 0 0-24.497393-24.756169H767.735379a24.583651 24.583651 0 0 0-24.583652 24.756169z" fill="#73B9FE" p-id="16908"></path><path d="M767.735379 505.646894a24.583651 24.583651 0 0 0-24.497393 24.756169v25.877528c0 49.598595-45.371932 90.226314-100.836101 90.226313-55.550426 0-100.922359-40.627719-100.922358-90.226313v-25.877528a24.583651 24.583651 0 0 0-24.497393-24.756169H351.883506A24.583651 24.583651 0 0 0 327.817405 530.403063v286.723008a24.583651 24.583651 0 0 0 24.497393 24.756169h580.777984a24.583651 24.583651 0 0 0 24.411134-24.756169V530.403063a24.583651 24.583651 0 0 0-24.497393-24.756169z" fill="#BDE0FE" p-id="16909"></path><path d="M301.939877 471.488558a13.628831 13.628831 0 0 1-11.386112-21.133315l61.415999-94.884269H871.24549l64.262528 98.938415-18.028012 11.731146-58.396954-88.673662H363.269618l-55.032876 84.705775a8.022034 8.022034 0 0 0 0-8.108292 7.849517 7.849517 0 0 0-6.986932-4.140405z" fill="#2196F3" p-id="16910" data-spm-anchor-id="a313x.7781069.0.i35" class=""></path><path d="M936.888152 852.664543H285.550776V449.923951h235.571762v68.057898a90.140055 90.140055 0 1 0 180.193852 0v-68.057898h235.571762z m-629.686511-21.564607h608.208163V471.488558H722.880997v46.493291a111.704662 111.704662 0 1 1-223.323065 0v-46.493291H307.115383z" fill="#2196F3" p-id="16911" data-spm-anchor-id="a313x.7781069.0.i34" class=""></path><path d="M403.293528 614.850062m9.057135 0l70.559392 0q9.057135 0 9.057135 9.057135l0 0.51755q0 9.057135-9.057135 9.057135l-70.559392 0q-9.057135 0-9.057135-9.057135l0-0.51755q0-9.057135 9.057135-9.057135Z" fill="#2196F3" p-id="16912" data-spm-anchor-id="a313x.7781069.0.i43" class="selected"></path><path d="M456.773752 579.225332m0 9.057135l0 71.76701q0 9.057135-9.057135 9.057135l-0.258775 0q-9.057135 0-9.057135-9.057135l0-71.76701q0-9.057135 9.057135-9.057135l0.258775 0q9.057135 0 9.057135 9.057135Z" fill="#008AFF" p-id="16913"></path><path d="M760.920963 614.850062m9.057135 0l70.559392 0q9.057135 0 9.057135 9.057135l0 0.51755q0 9.057135-9.057135 9.057135l-70.559392 0q-9.057135 0-9.057135-9.057135l0-0.51755q0-9.057135 9.057135-9.057135Z" fill="#008AFF" p-id="16914"></path><path d="M814.401187 579.225332m0 9.057135l0 71.76701q0 9.057135-9.057135 9.057135l-0.258775 0q-9.057135 0-9.057135-9.057135l0-71.76701q0-9.057135 9.057135-9.057135l0.258775 0q9.057135 0 9.057135 9.057135Z" fill="#2196F3" p-id="16915" data-spm-anchor-id="a313x.7781069.0.i42" class="selected"></path><path d="M752.553896 773.393049a8.625843 8.625843 0 0 1-5.865573-2.328977c-28.206505-26.395078-48.21846-18.545562-71.335719-9.488427-18.890595 7.418225-40.368943 15.785292-64.348786 0.690067-40.713977-25.877528-84.015707 7.763258-86.258426 9.229652a8.625843 8.625843 0 0 1-12.07618-1.380135 8.625843 8.625843 0 0 1 1.380135-12.162438c2.242719-1.725169 54.687842-42.439146 105.839089-10.264753 16.561618 10.43727 30.794258 4.830472 48.822269-2.15646 23.721067-9.31591 53.221449-20.874539 89.36373 12.938764a8.625843 8.625843 0 0 1 0 12.162438 8.625843 8.625843 0 0 1-5.520539 2.760269z" fill="#2196F3" p-id="16916" data-spm-anchor-id="a313x.7781069.0.i41" class="selected"></path><path d="M360.164315 727.503567a8.625843 8.625843 0 0 1-8.625843-8.625843v-38.557517a8.625843 8.625843 0 0 1 8.625843-8.625842 8.625843 8.625843 0 0 1 8.625842 8.625842v38.557517a8.625843 8.625843 0 0 1-8.625842 8.625843zM358.611663 664.189882a8.625843 8.625843 0 0 1-8.625843-8.625843l-1.293876-102.302493a8.625843 8.625843 0 0 1 8.625843-8.625843 8.625843 8.625843 0 0 1 8.625842 8.625843L367.237506 655.564039a8.625843 8.625843 0 0 1-8.625843 8.625843z" fill="#FFFFFF" p-id="16917"></path><path d="M98.715025 914.166801m9.660944 0l57.448112 0q9.660944 0 9.660943 9.660944l0 0.086258q0 9.660944-9.660943 9.660944l-57.448112 0q-9.660944 0-9.660944-9.660944l0-0.086258q0-9.660944 9.660944-9.660944Z" fill="#0188FE" p-id="16918"></path><path d="M184.800934 914.166801m9.660944 0l564.388883 0q9.660944 0 9.660943 9.660944l0 0.086258q0 9.660944-9.660943 9.660944l-564.388883 0q-9.660944 0-9.660944-9.660944l0-0.086258q0-9.660944 9.660944-9.660944Z" fill="#2196F3" p-id="16919" data-spm-anchor-id="a313x.7781069.0.i37" class=""></path><path d="M805.861603 914.166801m9.660944 0l321.398896 0q9.660944 0 9.660943 9.660944l0 0.086258q0 9.660944-9.660943 9.660944l-321.398896 0q-9.660944 0-9.660944-9.660944l0-0.086258q0-9.660944 9.660944-9.660944Z" fill="#2196F3" p-id="16920" data-spm-anchor-id="a313x.7781069.0.i38" class=""></path><path d="M95.609722 827.04579m12.938764 0l118.950369 0q12.938764 0 12.938764 12.938764l0 0q0 12.938764-12.938764 12.938764l-118.950369 0q-12.938764 0-12.938764-12.938764l0 0q0-12.938764 12.938764-12.938764Z" fill="#2196F3" p-id="16921" data-spm-anchor-id="a313x.7781069.0.i40" class=""></path><path d="M975.445669 827.04579m12.938764 0l107.909291 0q12.938764 0 12.938764 12.938764l0 0q0 12.938764-12.938764 12.938764l-107.909291 0q-12.938764 0-12.938764-12.938764l0 0q0-12.938764 12.938764-12.938764Z" fill="#2196F3" p-id="16922" data-spm-anchor-id="a313x.7781069.0.i39" class="selected"></path></svg>