<?xml version="1.0" standalone="no"?><!DOCTYPE svg PUBLIC "-//W3C//DTD SVG 1.1//EN" "http://www.w3.org/Graphics/SVG/1.1/DTD/svg11.dtd"><svg t="1573160641357" class="icon" viewBox="0 0 1536 1024" version="1.1" xmlns="http://www.w3.org/2000/svg" p-id="54686" xmlns:xlink="http://www.w3.org/1999/xlink" width="300" height="200"><defs><style type="text/css"></style></defs><path d="M0 818.709333a768 199.808 0 1 0 1536 0 768 199.808 0 1 0-1536 0Z" fill="#F2F2F2" p-id="54687"></path><path d="M206.421333 332.629333a12.586667 12.586667 0 0 1 12.586667-12.586666h1106.133333a12.586667 12.586667 0 0 1 12.586667 12.586666v457.258667a62.933333 62.933333 0 0 1-62.933333 62.933333h-1005.44a62.933333 62.933333 0 0 1-62.933334-62.933333V332.629333z" fill="#F5F5F5" p-id="54688"></path><path d="M181.248 332.629333v457.258667a88.106667 88.106667 0 0 0 88.106667 88.106667h1005.44a88.106667 88.106667 0 0 0 88.106666-88.106667V332.629333a37.76 37.76 0 0 0-37.76-37.76h-1106.133333a37.76 37.76 0 0 0-37.76 37.76z m25.173333 0a12.586667 12.586667 0 0 1 12.586667-12.586666h1106.133333a12.586667 12.586667 0 0 1 12.586667 12.586666v457.258667a62.933333 62.933333 0 0 1-62.933333 62.933333h-1005.44a62.933333 62.933333 0 0 1-62.933334-62.933333V332.629333z" fill="#DBDBDB" p-id="54689"></path><path d="M482.922667 0H1083.946667l277.205333 316.010667H1079.082667a50.346667 50.346667 0 0 0-49.621334 41.813333l-10.282666 59.797333a50.346667 50.346667 0 0 1-49.6 41.813334H593.642667a50.346667 50.346667 0 0 1-49.792-42.944l-8.554667-57.536a50.346667 50.346667 0 0 0-49.792-42.944H185.237333L482.922667 0z" fill="#FFFFFF" p-id="54690"></path><path d="M482.922667 0H1083.946667l277.205333 316.010667H1079.082667a50.346667 50.346667 0 0 0-49.621334 41.813333l-10.282666 59.797333a50.346667 50.346667 0 0 1-49.6 41.813334H593.642667a50.346667 50.346667 0 0 1-49.792-42.944l-8.554667-57.536a50.346667 50.346667 0 0 0-49.792-42.944H185.237333L482.922667 0z m10.88 25.173333L243.498667 290.837333h241.984a75.52 75.52 0 0 1 74.688 64.426667l8.533333 57.536a25.173333 25.173333 0 0 0 24.917333 21.461333h375.936a25.173333 25.173333 0 0 0 24.810667-20.906666l10.261333-59.797334a75.52 75.52 0 0 1 74.453334-62.72h226.474666L1072.533333 25.173333H493.781333z" fill="#DBDBDB" p-id="54691"></path></svg>