<?xml version="1.0" standalone="no"?><!DOCTYPE svg PUBLIC "-//W3C//DTD SVG 1.1//EN" "http://www.w3.org/Graphics/SVG/1.1/DTD/svg11.dtd"><svg t="1575799725657" class="icon" viewBox="0 0 1024 1024" version="1.1" xmlns="http://www.w3.org/2000/svg" p-id="2822" xmlns:xlink="http://www.w3.org/1999/xlink" width="200" height="200"><defs><style type="text/css"></style></defs><path d="M792 200c9.6 0 16 6.4 16 16v432c0 9.6-6.4 16-16 16h-304l-12.8 9.6-163.2 120v-129.6h-80c-9.6 0-16-6.4-16-16v-432c0-9.6 6.4-16 16-16h560m0-48h-560c-35.2 0-64 28.8-64 64v432c0 35.2 28.8 64 64 64h32v144c0 9.6 8 16 16 16 3.2 0 6.4-1.6 9.6-3.2l214.4-156.8h288c35.2 0 64-28.8 64-64v-432c0-35.2-28.8-64-64-64z" p-id="2823" data-spm-anchor-id="a313x.7781069.0.i1" class="selected" fill="#ffffff"></path><path d="M512 432m-40 0a40 40 0 1 0 80 0 40 40 0 1 0-80 0Z" p-id="2824" data-spm-anchor-id="a313x.7781069.0.i2" class="selected" fill="#ffffff"></path><path d="M352 432m-40 0a40 40 0 1 0 80 0 40 40 0 1 0-80 0Z" p-id="2825" data-spm-anchor-id="a313x.7781069.0.i3" class="selected" fill="#ffffff"></path><path d="M672 432m-40 0a40 40 0 1 0 80 0 40 40 0 1 0-80 0Z" p-id="2826" data-spm-anchor-id="a313x.7781069.0.i4" class="selected" fill="#ffffff"></path></svg>