<?xml version="1.0" standalone="no"?><!DOCTYPE svg PUBLIC "-//W3C//DTD SVG 1.1//EN" "http://www.w3.org/Graphics/SVG/1.1/DTD/svg11.dtd"><svg t="1573081480778" class="icon" viewBox="0 0 1024 1024" version="1.1" xmlns="http://www.w3.org/2000/svg" p-id="52027" data-spm-anchor-id="a313x.7781069.0.i25" xmlns:xlink="http://www.w3.org/1999/xlink" width="200" height="200"><defs><style type="text/css"></style></defs><path d="M497.389899 90.892929c-0.775758 0-1.680808 0.129293-2.456566 0.258586-27.79798 4.783838-55.466667 13.834343-58.440404 14.868687-0.258586 0-0.387879 0.129293-0.646464 0.258586-107.830303 41.244444-189.026263 156.056566-189.026263 267.119192v289.357576c0 1.422222-0.387879 2.715152-1.034343 3.878787L164.460606 817.131313c-4.008081 7.369697-4.008081 16.549495 0.129293 24.048485 4.008081 7.369697 11.636364 11.894949 19.781818 11.894949H868.072727c12.670707 0 22.884848-10.731313 22.884849-23.919191 0-6.593939-2.456566-12.670707-6.852525-17.19596-0.517172-0.517172-0.905051-1.163636-1.29293-1.810101l-77.575757-143.515152c-0.646465-1.163636-1.034343-2.585859-1.034344-3.878787V373.268687c0-109.252525-79.90303-223.547475-185.664646-265.69697-0.258586-0.129293-0.517172-0.129293-0.775758-0.258586-3.361616-1.163636-33.09899-10.989899-62.189899-16.161616-0.905051-0.129293-1.680808-0.258586-2.585858-0.258586h-2.715152c-3.232323-0.387879-6.206061-0.775758-9.309091-1.292929-5.430303-0.905051-10.343434-1.680808-15.515151-1.680808s-10.084848 0.775758-15.385859 1.680808c-3.232323 0.517172-6.206061 0.905051-9.309091 1.292929H497.389899z" fill="#2196F3" p-id="52028" data-spm-anchor-id="a313x.7781069.0.i23" class=""></path><path d="M496.484848 988.573737c-70.206061 0-131.10303-50.165657-141.834343-116.622222-1.163636-7.628283-8.145455-13.317172-16.161616-13.317172h-205.575758c-14.480808 0-27.79798-7.369697-35.038384-19.264646-7.240404-12.024242-7.240404-26.892929-0.129292-38.787879l83.264646-140.541414c1.422222-2.327273 2.068687-5.042424 2.068687-7.757576V377.923232c0-54.561616 20.945455-112.09697 58.957576-162.133333 38.917172-51.2 93.349495-90.892929 153.212121-111.579798l0.387879-0.129293c0.775758-0.258586 5.042424-1.551515 11.765656-3.361616 6.981818-1.939394 11.765657-8.016162 11.765657-14.99798v-8.40404c0-40.856566 34.650505-74.084848 77.187879-74.084849 42.537374 0 77.187879 33.228283 77.187878 74.084849v9.179798c0 6.981818 4.783838 13.187879 11.765657 14.997979 7.886869 2.19798 13.058586 3.749495 13.963636 4.008081l0.387879 0.129293c58.957576 21.333333 112.484848 61.026263 150.626263 111.709091 37.365657 49.648485 57.923232 106.666667 57.923232 160.711111v274.359596c0 2.715152 0.775758 5.430303 2.19798 7.757576L888.113131 791.272727c0.646465 1.034343 1.292929 1.939394 2.068687 2.715152 6.723232 7.111111 10.214141 16.032323 10.214142 25.858586 0 21.462626-18.10101 38.787879-40.468687 38.787878h-205.575758c-8.016162 0-14.868687 5.688889-16.161616 13.317172-10.60202 66.456566-71.49899 116.622222-141.705051 116.622222z m-108.218181-129.939394c-4.913131 0-9.567677 2.19798-12.670707 5.947475-3.10303 3.749495-4.266667 8.533333-3.232324 13.187879 12.929293 55.208081 65.163636 95.288889 124.121212 95.288889s111.191919-40.080808 124.121213-95.288889c1.034343-4.654545-0.129293-9.567677-3.232324-13.187879-3.10303-3.749495-7.757576-5.947475-12.8-5.947475H388.266667z m77.575757-754.553535c-0.905051 0-1.810101 0.129293-2.585858 0.258586-29.608081 4.654545-58.957576 13.446465-62.189899 14.480808-0.258586 0-0.517172 0.129293-0.646465 0.258586-114.682828 39.951515-201.050505 151.272727-201.050505 258.844444v280.565657c0 1.292929-0.387879 2.715152-1.034343 3.878788L111.967677 808.210101c-4.266667 7.111111-4.266667 16.161616 0.129293 23.272727 4.266667 7.111111 12.282828 11.507071 20.945454 11.507071h726.884849c13.446465 0 24.307071-10.472727 24.30707-23.272727 0-6.464646-2.585859-12.282828-7.240404-16.678788-0.517172-0.517172-1.034343-1.034343-1.422222-1.680808L793.082828 662.109091c-0.646465-1.163636-1.034343-2.456566-1.034343-3.878788v-280.565657c0-105.890909-84.945455-216.694949-197.430303-257.680808-0.258586-0.129293-0.517172-0.129293-0.775758-0.258585-3.490909-1.034343-35.167677-10.60202-66.19798-15.644445-0.905051-0.129293-1.810101-0.258586-2.715151-0.258586H521.955556c-3.361616-0.387879-6.593939-0.775758-9.826263-1.292929-5.818182-0.905051-10.989899-1.551515-16.549495-1.551515-5.430303 0-10.731313 0.775758-16.290909 1.551515-3.490909 0.517172-6.593939 0.905051-9.955556 1.292929H467.652525c-0.517172 0.258586-1.163636 0.258586-1.810101 0.258586zM522.472727 87.919192h1.163637c4.654545 0.646465 9.438384 1.422222 14.480808 2.327273 1.034343 0.258586 2.068687 0.258586 2.973737 0.258586 3.878788 0 7.757576-1.292929 10.731313-3.878788 3.749495-3.10303 5.818182-7.757576 5.559596-12.541415-1.680808-31.159596-28.444444-55.59596-60.89697-55.595959-32.193939 0-58.957576 24.177778-60.896969 54.949495-0.258586 4.783838 1.680808 9.438384 5.430303 12.670707 2.973737 2.585859 6.852525 4.008081 10.860606 4.008081 0.905051 0 1.939394-0.129293 2.844444-0.258586 4.783838-0.775758 9.050505-1.551515 13.058586-2.068687 0.387879 0 0.775758-0.129293 1.163637-0.129293 0.387879 0 0.775758 0 1.163636 0.129293 1.551515 0.258586 3.10303 0.129293 4.525252 0l2.327273-0.387879c5.818182-0.905051 12.024242-1.810101 18.747475-1.810101 6.723232 0 13.058586 0.905051 18.747475 1.810101l2.715151 0.387879c0.775758 0.129293 1.680808 0.129293 2.456566 0.129293 0.646465 0 1.292929 0 1.939394-0.129293 0.258586 0.129293 0.517172 0.129293 0.90505 0.129293z" fill="#2196F3" p-id="52029" data-spm-anchor-id="a313x.7781069.0.i26" class=""></path><path d="M914.876768 439.337374c0 5.947475 1.034343 11.507071 2.844444 14.739394 1.551515 3.232323 3.620202 3.232323 5.171717 0s2.844444-8.662626 2.844445-14.739394c0-5.947475-1.034343-11.507071-2.844445-14.739394-1.551515-3.232323-3.620202-3.232323-5.171717 0-1.810101 2.973737-2.844444 8.40404-2.844444 14.739394z m-36.848485 24.565656c0 2.973737 7.628283 5.171717 16.808081 5.171717 9.309091 0 16.808081-2.19798 16.80808-5.171717s-7.628283-5.30101-16.80808-5.30101c-8.921212 0-16.808081 2.456566-16.808081 5.30101z m36.072727 24.824243c0 5.947475 1.034343 11.507071 2.844445 14.739394 1.551515 3.232323 3.620202 3.232323 5.171717 0s2.844444-8.662626 2.844444-14.739394c0-5.947475-1.034343-11.507071-2.844444-14.739394-1.551515-3.232323-3.620202-3.232323-5.171717 0-1.810101 3.10303-2.844444 8.662626-2.844445 14.739394z m13.446465-24.307071c0 2.973737 7.628283 5.171717 16.808081 5.171717 9.309091 0 16.808081-2.19798 16.80808-5.171717s-7.628283-5.171717-16.80808-5.171717c-9.309091 0-16.808081 2.327273-16.808081 5.171717z" fill="#FF5F9A" p-id="52030"></path><path d="M111.191919 226.391919c0 12.412121 3.232323 22.367677 7.111111 22.367677s7.111111-9.955556 7.111111-22.367677-3.232323-22.49697-7.111111-22.49697c-4.137374 0.129293-7.111111 10.084848-7.111111 22.49697z m-21.074747 14.351515c5.688889 5.688889 11.894949 9.955556 16.290909 11.248485 4.266667 1.163636 6.076768-0.646465 4.913131-4.913131s-5.430303-10.343434-11.248485-16.161616c-5.688889-5.688889-11.894949-9.955556-16.161616-11.248485-4.266667-1.163636-6.076768 0.646465-4.913131 4.913131 1.163636 4.39596 5.430303 10.472727 11.119192 16.161616z m-27.280808 17.713132c0 3.878788 9.955556 7.111111 22.367676 7.111111s22.367677-3.232323 22.367677-7.111111-9.955556-7.111111-22.367677-7.111111c-12.541414 0.129293-22.367677 3.232323-22.367676 7.111111z m36.460606 27.797979c5.688889-5.688889 9.955556-11.894949 11.248485-16.161616s-0.646465-6.076768-4.913132-4.913131-10.343434 5.430303-16.290909 11.248485c-5.688889 5.688889-9.955556 11.894949-11.248485 16.290909-1.163636 4.266667 0.646465 6.076768 4.913132 4.913131 4.39596-1.292929 10.60202-5.559596 16.290909-11.377778z m10.860606 5.301011c0 12.412121 3.232323 22.367677 7.111111 22.367676s7.111111-9.955556 7.111111-22.367676-3.232323-22.367677-7.111111-22.367677c-4.008081-0.129293-7.111111 9.826263-7.111111 22.367677z m35.038384-14.351516c-5.688889-5.688889-11.894949-9.955556-16.290909-11.119192s-6.076768 0.646465-4.913132 4.913132 5.430303 10.343434 11.248485 16.290909c5.688889 5.688889 11.894949 9.955556 16.290909 11.248485 4.266667 1.163636 6.076768-0.646465 4.913131-4.913132-1.163636-4.39596-5.559596-10.60202-11.248484-16.420202z m-17.583839-17.713131c0 2.715152 4.266667 4.783838 10.989899 5.947475 7.111111 1.163636 15.256566 1.163636 22.367677 0s10.989899-3.749495 10.989899-5.947475c0-2.585859-4.266667-4.783838-10.989899-5.947475-7.111111-1.163636-15.256566-1.163636-22.367677 0-6.593939 1.034343-10.989899 3.490909-10.989899 5.947475z m8.145455-28.315151c-5.688889 5.688889-9.955556 11.894949-11.248485 16.290909-1.163636 4.266667 0.646465 6.076768 4.913131 4.913131 4.266667-1.163636 10.343434-5.430303 16.161616-11.248485 5.688889-5.688889 9.955556-11.894949 11.248485-16.290909 1.163636-4.266667-0.646465-6.076768-4.913131-4.913131-4.137374 1.422222-10.472727 5.688889-16.161616 11.248485z" fill="#F7D361" p-id="52031"></path><path d="M217.082828 919.789899c3.490909-0.905051 3.232323-5.947475-0.258586-6.464646-2.973737-0.387879-3.878788-4.008081-1.422222-5.947475 2.844444-2.327273 0.387879-6.852525-2.973737-5.559596-2.844444 0.646465-5.171717-2.19798-3.878788-4.654546 1.422222-3.232323-2.327273-6.464646-4.913131-4.00808-2.327273 1.680808-5.559596 0.258586-5.30101-2.844445 0.258586-3.620202-4.525253-4.913131-6.464647-1.422222-1.292929 2.585859-4.913131 2.585859-6.206061-0.258586-1.292929-3.490909-6.206061-2.585859-6.464646 0.905051-0.258586 2.973737-3.620202 4.266667-5.559596 2.327272-2.585859-2.585859-6.852525 0.258586-5.30101 3.620202 1.034343 2.844444-1.422222 5.30101-4.266667 4.266667-3.490909-1.292929-6.206061 2.973737-3.620202 5.30101 2.19798 2.19798 0.646465 5.30101-2.327272 5.559596-3.620202 0.258586-4.266667 5.171717-0.905051 6.464646 2.844444 0.905051 2.973737 4.654545 0.258586 6.206061-3.232323 1.422222-1.680808 6.723232 1.422222 6.464647 2.973737-0.258586 4.525253 3.232323 2.844445 5.30101-2.327273 2.844444 0.905051 6.723232 4.00808 4.913131 2.585859-1.292929 5.30101 1.034343 4.654546 3.878788-0.905051 3.490909 3.620202 5.559596 5.559596 2.973737 1.680808-2.327273 5.30101-1.292929 5.947475 1.422222 0.387879 3.620202 5.559596 3.878788 6.464646 0.258586 0.646465-2.844444 4.525253-3.490909 5.947475-0.90505 2.19798 2.973737 6.723232 1.034343 6.20606-2.327273-0.387879-2.973737 2.844444-4.913131 4.913132-3.490909 2.973737 2.19798 6.723232-1.422222 4.525252-4.525253-1.422222-2.585859 0.387879-5.30101 3.490909-4.913131 3.620202 0.646465 5.30101-4.008081 2.327273-6.20606-2.068687-1.939394-1.292929-5.559596 1.292929-6.335354z m-29.478788 13.446465c-8.145455 0-14.99798-6.723232-14.997979-14.99798 0-8.145455 6.723232-14.99798 14.997979-14.99798 8.145455 0 14.99798 6.723232 14.99798 14.99798-0.517172 8.40404-6.852525 14.99798-14.99798 14.99798zM857.6 214.755556c4.137374-1.034343 3.620202-6.723232-0.387879-7.369697-3.490909-0.387879-4.525253-4.654545-1.680808-6.723233 3.490909-2.19798 0.646465-7.369697-3.490909-6.335353-3.490909 0.646465-5.688889-2.19798-4.525252-5.559596 1.680808-3.620202-2.19798-7.111111-5.688889-4.654546-2.19798 2.068687-6.335354 0-6.076768-3.490909 0.387879-4.137374-5.559596-5.688889-7.111111-1.680808-1.422222 2.715152-5.688889 2.715152-6.723232-0.387879-1.422222-4.137374-7.111111-2.715152-7.111112 1.034344 0 3.490909-4.525253 4.654545-6.335353 2.19798-2.715152-2.715152-7.369697 0.387879-6.076768 4.137373 1.034343 3.490909-1.680808 6.076768-5.171717 5.171717-4.137374-1.422222-6.723232 3.490909-4.137374 6.076768 2.19798 2.068687 0.646465 6.335354-2.19798 6.335354-4.137374 0-5.171717 5.688889-1.034343 7.111111 3.490909 1.034343 3.490909 5.559596 0.387879 6.723232-3.620202 1.680808-2.068687 7.369697 1.680808 7.111111 3.490909-0.387879 5.559596 3.620202 3.490909 6.076768-2.19798 3.490909 1.034343 7.369697 4.654545 5.688889 2.715152-1.422222 6.076768 1.034343 5.559596 4.525252-1.034343 4.137374 4.137374 6.335354 6.335354 3.490909 2.068687-2.19798 6.076768-1.422222 6.723232 1.680809 0.646465 4.137374 6.335354 4.525253 7.369697 0.387878 0.646465-3.490909 5.171717-4.137374 6.723233-1.034343 2.068687 3.620202 7.369697 1.422222 6.723232-2.19798-0.646465-3.490909 2.715152-5.688889 5.688889-3.620202 3.620202 2.068687 7.369697-1.680808 5.559596-5.559596-1.680808-2.715152 0.387879-6.335354 3.620202-5.688889 4.137374 0.646465 6.076768-4.654545 2.19798-6.723232-2.844444-1.551515-2.068687-5.818182 1.034343-6.723232z m-34.00404 15.127272c-9.438384 0-16.937374-7.369697-16.937374-16.937373 0-9.438384 7.369697-16.937374 16.937374-16.937374 9.438384 0 16.937374 7.369697 16.937373 16.937374 0 9.69697-7.49899 16.937374-16.937373 16.937373z" fill="#FF6666" p-id="52032"></path><path d="M434.424242 204.024242c-2.585859-0.387879-5.042424-1.810101-6.335353-4.137373-2.456566-4.137374-0.775758-9.179798 3.361616-11.636364 8.274747-4.266667 17.066667-8.145455 25.858586-10.731313 4.39596-1.422222 9.309091 1.163636 10.860606 5.430303 1.422222 4.266667-1.163636 8.921212-5.559596 10.472727-8.016162 2.327273-15.515152 5.430303-22.884848 9.438384-1.810101 1.034343-3.620202 1.292929-5.301011 1.163636z m-88.953535 78.739394c-4.266667-1.680808-6.464646-6.723232-4.654545-10.860606 3.361616-7.628283 7.369697-15.256566 12.282828-22.238384 5.042424-7.240404 10.343434-14.092929 16.808081-20.428282 8.533333-8.274747 18.10101-15.515152 28.70303-21.204041 4.137374-2.585859 9.567677-0.517172 12.153535 3.103031 2.585859 4.008081 0.517172 9.179798-2.973737 11.765656-9.309091 5.30101-17.583838 11.119192-25.082828 18.488889-5.430303 5.559596-10.343434 11.248485-14.739394 17.713131-4.008081 6.076768-7.628283 12.412121-10.343435 19.39394-2.844444 4.008081-7.757576 5.947475-12.153535 4.266666z" fill="#FFFFFF" p-id="52033"></path></svg>