<?xml version="1.0" standalone="no"?><!DOCTYPE svg PUBLIC "-//W3C//DTD SVG 1.1//EN" "http://www.w3.org/Graphics/SVG/1.1/DTD/svg11.dtd"><svg t="1573064762769" class="icon" viewBox="0 0 1024 1024" version="1.1" xmlns="http://www.w3.org/2000/svg" p-id="33088" xmlns:xlink="http://www.w3.org/1999/xlink" width="200" height="200"><defs><style type="text/css"></style></defs><path d="M511.897677 0.307108C229.1537 0.307108 0.051231 229.409577 0.051231 512.153554s229.102469 511.846446 511.744076 511.846446 511.846446-229.204839 511.846447-511.846446S794.539284 0.307108 511.897677 0.307108z" fill="#60BCFF" p-id="33089"></path><path d="M511.897677 785.991403c-47.294612 0-87.423373-28.253924-102.369289-67.76847h204.738578c-14.945916 39.514546-55.177047 67.768469-102.369289 67.76847zM663.301856 683.929221H273.684341c0.204739-21.59992 16.174348-41.664301 43.097471-58.248125 21.59992-18.528841 31.529741-36.341098 31.529741-70.839548V429.951015c0-67.6661 41.869039-126.221334 100.936119-150.892333 10.544037-24.056783 34.60082-40.845346 62.547635-40.845346s52.003599 16.788563 62.547636 40.845346c59.06708 24.670999 100.936119 83.123863 100.936119 150.892333v124.788163c0 34.60082 10.03219 52.310707 31.529741 70.839548 27.127862 16.481456 42.995101 36.545836 43.097471 58.248126h-86.706788v0.102369z" fill="#FFFFFF" p-id="33090"></path></svg>