<?xml version="1.0" standalone="no"?><!DOCTYPE svg PUBLIC "-//W3C//DTD SVG 1.1//EN" "http://www.w3.org/Graphics/SVG/1.1/DTD/svg11.dtd"><svg t="1572969233696" class="icon" viewBox="0 0 1024 1024" version="1.1" xmlns="http://www.w3.org/2000/svg" p-id="3770" xmlns:xlink="http://www.w3.org/1999/xlink" width="200" height="200"><defs><style type="text/css"></style></defs><path d="M978.002004 178.233656H316.444394a43.350032 43.350032 0 0 1 0-86.700064h661.55761a43.350032 43.350032 0 0 1 0 86.700064zM978.002004 554.540831H316.444394a43.350032 43.350032 0 0 1 0-86.700063h661.55761a43.350032 43.350032 0 0 1 0 86.700063zM978.002004 930.855232H316.444394a43.350032 43.350032 0 0 1 0-86.700064h661.55761a43.350032 43.350032 0 0 1 0 86.700064z" fill="#231815" p-id="3771"></path><path d="M101.782262 134.883624m-101.778649 0a101.77865 101.77865 0 1 0 203.557299 0 101.77865 101.77865 0 1 0-203.557299 0Z" fill="#231815" p-id="3772"></path><path d="M101.782262 509.333973m-101.778649 0a101.77865 101.77865 0 1 0 203.557299 0 101.77865 101.77865 0 1 0-203.557299 0Z" fill="#231815" p-id="3773"></path><path d="M101.782262 883.791547m-101.778649 0a101.77865 101.77865 0 1 0 203.557299 0 101.77865 101.77865 0 1 0-203.557299 0Z" fill="#231815" p-id="3774"></path></svg>