<?xml version="1.0" standalone="no"?><!DOCTYPE svg PUBLIC "-//W3C//DTD SVG 1.1//EN" "http://www.w3.org/Graphics/SVG/1.1/DTD/svg11.dtd"><svg t="1573142067585" class="icon" viewBox="0 0 1024 1024" version="1.1" xmlns="http://www.w3.org/2000/svg" p-id="9298" xmlns:xlink="http://www.w3.org/1999/xlink" width="200" height="200"><defs><style type="text/css"></style></defs><path d="M512 0C229.239467 0 0 229.239467 0 512c0 282.760533 229.239467 512 512 512 282.760533 0 512-229.239467 512-512 0-282.760533-229.239467-512-512-512z m224.8704 668.8768a48.059733 48.059733 0 0 1-67.9936 67.9936L512 579.925333l-156.8768 156.910934a48.059733 48.059733 0 1 1-67.959467-67.9936L444.040533 512l-156.8768-156.8768a48.059733 48.059733 0 1 1 67.925334-67.9936L512 444.074667l156.8768-156.910934a48.059733 48.059733 0 0 1 67.9936 67.9936L579.9936 512l156.8768 156.8768z" fill="#000000" opacity=".35" p-id="9299"></path></svg>