<?xml version="1.0" standalone="no"?><!DOCTYPE svg PUBLIC "-//W3C//DTD SVG 1.1//EN" "http://www.w3.org/Graphics/SVG/1.1/DTD/svg11.dtd"><svg t="1575988191367" class="icon" viewBox="0 0 1024 1024" version="1.1" xmlns="http://www.w3.org/2000/svg" p-id="6278" data-spm-anchor-id="a313x.7781069.0.i5" xmlns:xlink="http://www.w3.org/1999/xlink" width="200" height="200"><defs><style type="text/css"></style></defs><path d="M8.97024 402.06336l17.34656 0 0-28.81536 58.12224 0 0 28.81536 13.76256 0 0 19.37408L84.41856 421.43744l0 37.4784 13.76256-2.56 0 19.37408-13.76256 2.56 0 37.72416c0 13.76256-10.69056 24.22784-24.22784 24.22784L11.53024 540.24192l0-19.37408 7.8848 0c3.85024 0 6.90176-3.072 6.90176-6.88128l0-24.73984L8.97024 492.544l0-19.3536 17.34656-3.31776 0-48.4352L8.97024 421.43744 8.97024 402.06336zM8.97024 613.90848l7.63904-63.22176 52.0192 0-7.90528 63.22176L8.97024 613.90848zM81.1008 613.90848l-7.63904-63.22176 51.75296 0 7.63904 63.22176L81.1008 613.90848zM106.0864 396.71808l14.80704 0 2.53952-23.47008 56.09472 0-2.53952 23.47008 66.00704 0 0 124.416 7.92576 0 0 19.37408L186.14272 540.50816l0-124.66176-11.4688 0-7.14752 63.20128 13.23008 7.90528 0 21.93408L165.23264 499.712l-4.34176 39.75168L104.81664 539.46368l7.90528-71.8848-8.13056-5.07904 0-21.68832 10.4448 6.36928 3.56352-31.35488L106.0864 415.82592 106.0864 396.71808zM139.73504 613.90848 132.096 550.68672l51.75296 0 7.35232 63.22176L139.73504 613.90848zM197.59104 613.90848l-7.3728-63.22176 51.5072 0 7.63904 63.22176L197.59104 613.90848z" p-id="6279" data-spm-anchor-id="a313x.7781069.0.i3" class="" fill="#d81e06"></path><path d="M270.97088 420.90496l-3.56352-47.39072 60.66176 0 3.584 47.39072L270.97088 420.90496zM270.97088 613.66272l0-175.90272 60.68224 0 0 175.90272L270.97088 613.66272zM432.10752 594.30912c5.38624 0 9.68704-4.36224 9.68704-9.70752l0-182.53824-91.2384 0 0-19.37408 151.67488 0L502.23104 589.4144c0 13.25056-10.97728 24.24832-24.22784 24.24832l-61.19424 0 0-19.3536L432.10752 594.30912z" p-id="6280" data-spm-anchor-id="a313x.7781069.0.i4" class="" fill="#d81e06"></path><path d="M608.21504 372.24448l-14.27456 60.66176 9.44128 0 0 181.51424-61.952 0 0-128.24576-22.4256 0 26.5216-113.93024L608.21504 372.24448zM627.6096 378.85952l126.95552-4.83328 0 19.37408-30.33088 1.26976 0 82.10432 36.4544 0 0 19.61984-36.4544 0 0 98.9184 32.8704 0 0 19.61984-131.80928 0 0-19.61984 33.42336 0 0-98.9184-36.4544 0 0-19.61984 36.4544 0 0-79.54432-31.1296 1.00352L627.58912 378.85952z" p-id="6281" data-spm-anchor-id="a313x.7781069.0.i6" class="" fill="#d81e06"></path><path d="M774.41024 457.6256l52.26496-84.11136 56.60672 0-10.69056 16.30208 130.2528 0 0 45.38368-56.832 22.9376 49.95072 22.67136 19.12832 0 0 18.61632-68.83328 0-48.92672-21.66784-53.80096 21.66784-68.58752 0 0-18.61632 18.86208 0 57.09824-23.71584-16.81408-7.63904-5.36576 8.15104L774.41024 457.60512zM784.60928 525.96736l42.06592 0 9.44128-18.35008 55.82848 0-9.15456 18.35008 120.05376 0 0 63.73376c0 13.23008-10.9568 24.20736-24.22784 24.20736l-68.56704 0 0-18.8416 28.03712 0c4.07552 0 7.3728-3.05152 7.3728-7.168l0-42.55744-72.13056 0-33.3824 68.56704-58.14272 0 34.9184-68.56704-32.11264 0L784.60928 525.96736zM949.5552 415.82592l0-7.14752-89.23136 0-5.09952 8.15104 44.09344 19.88608L949.5552 415.82592z" p-id="6282" data-spm-anchor-id="a313x.7781069.0.i7" class="" fill="#d81e06"></path></svg>