<?xml version="1.0" standalone="no"?><!DOCTYPE svg PUBLIC "-//W3C//DTD SVG 1.1//EN" "http://www.w3.org/Graphics/SVG/1.1/DTD/svg11.dtd"><svg t="1572993405349" class="icon" viewBox="0 0 1024 1024" version="1.1" xmlns="http://www.w3.org/2000/svg" p-id="53492" xmlns:xlink="http://www.w3.org/1999/xlink" width="200" height="200"><defs><style type="text/css"></style></defs><path d="M470.528 768.512c170.496 0 308.736-138.24 308.736-308.736s-138.24-308.736-308.736-308.736-308.736 138.24-308.736 308.736 138.24 308.736 308.736 308.736z m0 84.48c-217.6 0-393.728-176.128-393.728-393.728s176.128-393.728 393.728-393.728 393.728 176.128 393.728 393.728-176.64 393.728-393.728 393.728z" fill="#6B6B6B" p-id="53493"></path><path d="M679.424 745.984c-15.36-15.36-15.36-40.448 0-55.808s40.448-15.36 55.808 0l200.704 200.704c15.36 15.36 15.36 40.448 0 55.808s-40.448 15.36-55.808 0l-200.704-200.704z" fill="#6B6B6B" p-id="53494"></path></svg>