<?xml version="1.0" standalone="no"?><!DOCTYPE svg PUBLIC "-//W3C//DTD SVG 1.1//EN" "http://www.w3.org/Graphics/SVG/1.1/DTD/svg11.dtd"><svg t="1573128468170" class="icon" viewBox="0 0 1024 1024" version="1.1" xmlns="http://www.w3.org/2000/svg" p-id="2129" xmlns:xlink="http://www.w3.org/1999/xlink" width="200" height="200"><defs><style type="text/css"></style></defs><path d="M878.08 466.944L748.698 213.862A98.867 98.867 0 0 0 660.634 160H366.08c-36.864 0-70.656 20.48-87.654 53.146L146.33 466.227a98.867 98.867 0 0 0 0 91.546l132.096 253.081A98.867 98.867 0 0 0 366.08 864h294.554c37.17 0 71.168-20.787 88.064-53.862L878.08 557.005a98.867 98.867 0 0 0 0-90.01zM805.683 839.27A162.867 162.867 0 0 1 660.633 928H366.08a162.867 162.867 0 0 1-144.384-87.552L89.6 587.366a162.867 162.867 0 0 1 0-150.732L221.696 183.5A162.867 162.867 0 0 1 366.08 96h294.554c61.184 0 117.196 34.304 145.05 88.73l129.382 253.132c23.808 46.592 23.808 101.735 0 148.276L805.683 839.27z" fill="#5A5A68" p-id="2130" data-spm-anchor-id="a313x.7781069.0.i0" class="selected"></path><path d="M512 697.6a185.6 185.6 0 1 1 0-371.2 185.6 185.6 0 0 1 0 371.2z m0-64a121.6 121.6 0 1 0 0-243.2 121.6 121.6 0 0 0 0 243.2z" fill="#5A5A68" p-id="2131"></path></svg>