<?xml version="1.0" encoding="UTF-8"?>
<svg width="173px" height="163px" viewBox="0 0 173 163" version="1.1" xmlns="http://www.w3.org/2000/svg" xmlns:xlink="http://www.w3.org/1999/xlink">
    <!-- Generator: Sketch 61 (89581) - https://sketch.com -->
    <title>setting</title>
    <desc>Created with Sketch.</desc>
    <g id="Page-1" stroke="none" stroke-width="1" fill="none" fill-rule="evenodd">
        <g id="setting" fill="#FFFFFF" fill-rule="nonzero">
            <path d="M157.632812,72.45 L132.362891,23.0199219 C129.06072,16.560878 122.417101,12.4974858 115.162891,12.4999988 L57.6328125,12.4999988 C50.4328125,12.4999988 43.8328125,16.4999988 40.5128906,22.8800781 L14.7128906,72.3099609 C11.7873304,77.9109742 11.7873304,84.5890258 14.7128906,90.1900391 L40.5128906,139.619922 C43.8401179,145.999151 50.4380228,149.999999 57.6328125,149.999999 L115.162891,149.999999 C122.422656,149.999999 129.062891,145.940039 132.362891,139.480078 L157.632812,90.0400391 C160.455018,84.5198086 160.455018,77.9801914 157.632812,72.4599609 L157.632812,72.45 Z M143.492773,145.169922 C138.053729,155.808919 127.111396,162.502564 115.162695,162.5 L57.6328125,162.5 C45.7812737,162.498344 34.9133496,155.90822 29.4328125,145.4 L3.6328125,95.9699219 C-1.18147314,86.7470993 -1.18147314,75.7529007 3.6328125,66.5300781 L29.4328125,17.0898438 C34.9161099,6.58555941 45.783486,0 57.6328125,0 L115.162891,0 C127.112891,0 138.052734,6.7 143.492969,17.3300781 L168.762891,66.7699219 C173.412891,75.8699219 173.412891,86.6400391 168.762891,95.7300781 L143.492773,145.169922 Z" id="形状"></path>
            <path d="M86.1328125,117.5 C73.1819347,117.5 61.2148301,110.590789 54.7393912,99.3750002 C48.2639522,88.159211 48.2639522,74.340789 54.7393912,63.1249998 C61.2148301,51.9092107 73.1819347,45 86.1328125,45 C106.153134,45 122.382812,61.229678 122.382812,81.25 C122.382812,101.270322 106.153134,117.5 86.1328125,117.5 Z M86.1328125,105 C94.6178704,105 102.458387,100.473276 106.700916,93.1250001 C110.943445,85.7767245 110.943445,76.7232755 106.700916,69.3749999 C102.458387,62.0267242 94.6178704,57.5 86.1328125,57.5 C73.01605,57.5 62.3828132,68.1332375 62.3828132,81.25 C62.3828132,94.3667625 73.01605,105 86.1328125,105 L86.1328125,105 Z" id="形状"></path>
        </g>
    </g>
</svg>