<?xml version="1.0" standalone="no"?><!DOCTYPE svg PUBLIC "-//W3C//DTD SVG 1.1//EN" "http://www.w3.org/Graphics/SVG/1.1/DTD/svg11.dtd"><svg t="1573659334963" class="icon" viewBox="0 0 1024 1024" version="1.1" xmlns="http://www.w3.org/2000/svg" p-id="8940" xmlns:xlink="http://www.w3.org/1999/xlink" width="200" height="200"><defs><style type="text/css"></style></defs><path d="M455.111111 929.166222a331.832889 331.832889 0 1 0 0-663.665778 331.832889 331.832889 0 0 0 0 663.665778zM455.111111 1024a426.666667 426.666667 0 1 1 0-853.333333 426.666667 426.666667 0 0 1 0 853.333333z" fill="#1E9FFF" p-id="8941"></path><path d="M654.222222 0m56.888889 0l227.555556 0q56.888889 0 56.888889 56.888889l0 0q0 56.888889-56.888889 56.888889l-227.555556 0q-56.888889 0-56.888889-56.888889l0 0q0-56.888889 56.888889-56.888889Z" fill="#1E9FFF" p-id="8942"></path><path d="M881.777778 0m56.888889 0l0 0q56.888889 0 56.888889 56.888889l0 284.444444q0 56.888889-56.888889 56.888889l0 0q-56.888889 0-56.888889-56.888889l0-284.444444q0-56.888889 56.888889-56.888889Z" fill="#1E9FFF" p-id="8943"></path><path d="M932.522667 0L995.555556 73.557333 717.255111 398.222222 654.222222 324.664889z" fill="#1E9FFF" p-id="8944"></path></svg>