<?xml version="1.0" standalone="no"?><!DOCTYPE svg PUBLIC "-//W3C//DTD SVG 1.1//EN" "http://www.w3.org/Graphics/SVG/1.1/DTD/svg11.dtd"><svg t="1573658979632" class="icon" viewBox="0 0 1024 1024" version="1.1" xmlns="http://www.w3.org/2000/svg" p-id="8796" xmlns:xlink="http://www.w3.org/1999/xlink" width="200" height="200"><defs><style type="text/css"></style></defs><path d="M1017.630364 505.630364A505.630364 505.630364 0 1 1 512 0a505.576384 505.576384 0 0 1 505.630364 505.630364z" fill="#8F8FCC" p-id="8797"></path><path d="M277.726937 1024a468.977965 468.977965 0 0 1 150.226252-173.815498 44.965314 44.965314 0 0 0-47.718292-76.165736 540.501423 540.501423 0 0 0-127.176805 120.80717 546.87106 546.87106 0 0 0-73.304797 129.174064z" fill="#FFB37F" p-id="8798"></path><path d="M572.241645 848.781023a458.397891 458.397891 0 0 1 105.530838 101.91418 446.252399 446.252399 0 0 1 45.181233 73.304797h97.163943a522.094254 522.094254 0 0 0-72.872957-130.631523 538.180285 538.180285 0 0 0-127.176805-120.75319 44.965314 44.965314 0 0 0-47.718292 76.165736z" fill="#FFC695" p-id="8799"></path><path d="M702.387348 1024c-7.287296-160.428466-37.785978-204.8-63.750342-232.977543-22.293727-24.183026-97.865683-60.727464-137.37902-50.093411-39.675277-10.795994-115.247232 25.910385-137.432999 50.093411-25.802425 28.177543-56.409067 72.657037-63.750343 232.977543z" fill="#F29555" p-id="8800"></path><path d="M277.726937 1024a456.508593 456.508593 0 0 1 44.641434-71.901318 482.634897 482.634897 0 0 1 93.547285-93.439325L411.219399 847.485503l-1.457459-2.860938-5.397997-9.500474a574.940643 574.940643 0 0 1-34.2233-54.411808 560.420032 560.420032 0 0 0-117.082551 114.113653 546.87106 546.87106 0 0 0-73.304797 129.174064zM677.772483 950.695203a446.252399 446.252399 0 0 1 45.181233 73.304797h97.163943a520.204955 520.204955 0 0 0-72.818977-130.631523 574.994623 574.994623 0 0 0-98.837322-100.294782c-13.872852 27.745704-26.989984 55.923247-39.081497 84.370691a486.791355 486.791355 0 0 1 68.39262 73.250817z" fill="#3A2C24" p-id="8801"></path><path d="M702.387348 1024c-7.233316-161.939905-37.785978-209.280337-63.750342-237.511861-2.537059-2.806958-1.349499-1.295519-5.397997-4.318397-78.324934 56.301107-187.36447 62.346863-266.391144-3.292778a43.777754 43.777754 0 0 0-3.184818 3.130838c-25.856405 28.177543-56.571007 78.270954-63.750343 241.938218z" fill="#E1F7F9" p-id="8802"></path><path d="M378.831418 1024c-8.150975-79.620453-14.736531-159.996626-19.054929-237.511861-25.100685 28.825303-60.079705 77.947074-64.236162 237.511861z" fill="#3A2C24" p-id="8803"></path><path d="M418.506695 1024l-3.886558-280.911755-113.843753 26.936004 47.988192 253.975751h69.742119z" fill="#4C3F38" p-id="8804"></path><path d="M706.273906 1024c-3.940538-164.746863-37.138218-204.63806-63.156563-232.977543-2.537059-2.806958-10.310174-5.721877-14.142752-8.744755-2.267159 80.969953-7.287296 161.238166-13.063152 241.722298z" fill="#3A2C24" p-id="8805"></path><path d="M651.268318 1024l47.988192-253.975751-113.843753-26.936004-3.940538 280.911755h69.796099z" fill="#4C3F38" p-id="8806"></path><path d="M823.464418 496.075909c5.128097 41.888455-17.975329 79.188614-51.65883 83.291092s-65.099842-26.450185-70.173959-68.33864 17.975329-79.188614 51.60485-83.291092 65.099842 26.450185 70.227939 68.33864z" fill="#FFB37F" p-id="8807"></path><path d="M292.139589 502.661465c0.75572 42.212335-26.126305 76.867475-60.079705 77.461255s-61.969004-33.089721-62.724723-75.571956S195.299526 427.953189 229.360886 427.35941s62.022984 33.143701 62.778703 75.302055z" fill="#F29555" p-id="8808"></path><path d="M505.792304 221.31787c-67.85282 3.130838-138.242699 21.591987-188.92989 56.301107C242.585978 328.198208 222.28951 433.729046 226.068108 515.508698c11.767633 251.708593 215.380074 259.373748 279.724196 264.501845z" fill="#FFC695" p-id="8809"></path><path d="M501.204006 221.31787c67.85282 3.130838 133.708382 21.591987 184.233632 56.301107 74.492356 50.84913 87.015709 156.541908 81.995572 238.159621-6.801476 110.712915-53.224249 266.499104-266.229204 264.501845z" fill="#FFC695" p-id="8810"></path><path d="M395.025409 520.744755a29.149183 29.149183 0 1 1-29.149183-29.149183 29.149183 29.149183 0 0 1 29.149183 29.149183zM665.78893 520.744755a29.149183 29.149183 0 1 1-29.149183-29.149183 29.149183 29.149183 0 0 1 29.149183 29.149183z" fill="#333331" p-id="8811"></path><path d="M543.200422 584.441118c0 15.708171-10.795994 28.447443-23.427307 28.447443h-37.030258c-12.955192 0-23.427306-12.739273-23.427306-28.447443 0-15.708171 10.472114-28.447443 23.427306-28.447444h37.030258c12.901212 0 23.427306 12.739273 23.427307 28.447444zM562.36331 641.497944a13.494992 13.494992 0 0 0-15.060411 11.551713c-0.48582 3.508698-5.991776 31.362362-45.775013 33.251661-39.837217-1.889299-45.289193-29.742963-45.828993-33.251661a13.494992 13.494992 0 0 0-26.989984 3.454718c2.429099 19.540749 20.782288 54.411808 71.793358 56.624987h1.511439c50.95709-2.213179 69.310279-37.084238 71.793358-56.624987a13.494992 13.494992 0 0 0-11.443754-15.006431z" fill="#F29555" p-id="8812"></path><path d="M776.177965 364.148867a253.705851 253.705851 0 0 0-11.875593-68.87844 180.185134 180.185134 0 0 0-117.028571-116.002952c-45.721033-14.790511-246.796415-13.333052-292.517449 1.403479A180.239114 180.239114 0 0 0 237.781761 296.889826a255.81107 255.81107 0 0 0-11.929573 68.87844c-0.863679 23.535266 11.983553 74.924196 11.983553 74.924196 15.006431-86.853769 56.517027-107.528097 119.781549-101.860201 53.224249 4.750237 89.930627 32.387981 146.447655 29.527043a11.281813 11.281813 0 0 1 0-1.349499c53.062309 0.70174 88.905008-26.989984 140.347917-29.581023 84.80253-4.588297 125.773326 98.837322 125.773327 98.837322a252.626252 252.626252 0 0 0 5.991776-72.117237z" fill="#3A2C24" p-id="8813"></path><path d="M237.835741 290.68213c66.665261-134.949921 192.006747-149.362572 317.564154-204.422141 31.794201-13.926832 35.464839-24.237006 65.261781 1.29552a479.773959 479.773959 0 0 1 147.473274 227.093727" fill="#3A2C24" p-id="8814"></path></svg>