<?xml version="1.0" standalone="no"?><!DOCTYPE svg PUBLIC "-//W3C//DTD SVG 1.1//EN" "http://www.w3.org/Graphics/SVG/1.1/DTD/svg11.dtd"><svg t="1573659497944" class="icon" viewBox="0 0 1024 1024" version="1.1" xmlns="http://www.w3.org/2000/svg" p-id="14839" xmlns:xlink="http://www.w3.org/1999/xlink" width="200" height="200"><defs><style type="text/css"></style></defs><path d="M993.484158 571.488863a488.551385 488.551385 0 1 1-398.633312-564.335004A488.499228 488.499228 0 0 1 993.484158 571.488863z" fill="#FF9166" p-id="14840"></path><path d="M334.589139 1023.947843l15.229743-131.90418-78.600079 123.194019 7.249775 5.215665-2.555676 3.494496h58.676237zM786.839492 1020.453347l6.154485-4.485472-8.814474-15.646996L717.053888 894.807966l9.961921 86.945144c1.512543 13.143477 2.764303 27.330087 3.859593 42.24689h58.363296z" fill="#6BB9BF" p-id="14841"></path><path d="M239.716184 939.506219L809.94489 933.612517s241.224528-811.505391-302.508597-811.505391C-23.570609 122.159283 239.716184 939.506219 239.716184 939.506219z" fill="#562307" p-id="14842"></path><path d="M316.073526 988.794258a401.293302 401.293302 0 0 1 122.620296-137.850038 38.230828 38.230828 0 0 0-40.577878-64.778566 458.300525 458.300525 0 0 0-108.172902 102.696454A463.672661 463.672661 0 0 0 231.996999 988.794258z" fill="#FFB37F" p-id="14843"></path><path d="M614.044495 850.94422a390.496874 390.496874 0 0 1 89.761603 86.68436 384.707485 384.707485 0 0 1 32.702222 51.165678h83.763588a437.49002 437.49002 0 0 0-57.37232-99.879994 458.248369 458.248369 0 0 0-108.433686-102.74861 38.230828 38.230828 0 0 0-40.577877 64.778566z" fill="#FFC695" p-id="14844"></path><path d="M718.827214 988.794258c-9.701138-128.461841-36.926912-167.214235-60.136623-192.562369-21.645012-23.626965-95.394522-59.302116-134.094759-48.922942-38.700238-10.431331-112.449748 25.295978-134.094759 48.922942-23.261868 25.348134-41.203757 64.100529-45.8457 192.562369z" fill="#F29555" p-id="14845"></path><path d="M717.523298 988.794258a585.30198 585.30198 0 0 0-6.936835-69.785604s-29.31204-35.101429-187.242391-32.128499c-135.920242 2.503519-174.098914 32.128499-174.098913 32.128499-2.03411 19.767372-3.598809 42.820614-4.589786 69.785604z" fill="#FF0000" p-id="14846"></path><path d="M321.237035 988.794258l23.314025-36.509658-4.224689 36.509658h80.686345v-213.059935s-102.331357 23.418338-173.9946 165.232283l62.014262 47.827652z" fill="#3281A0" p-id="14847"></path><path d="M331.407583 988.742101l1.825483-2.503519-92.317279-67.021301-27.4344 37.865731 43.602963 31.659089h74.323233zM441.718908 988.742101v-231.9928l-38.491611 13.143477v218.849323h38.491611z" fill="#4198C4" p-id="14848"></path><path d="M718.357805 988.794258l-4.172533-36.509658 23.314025 36.509658h12.1525l62.014263-47.827652c-71.663244-141.813944-173.9946-165.232282-173.9946-165.232283v213.059935z" fill="#3281A0" p-id="14849"></path><path d="M801.599826 988.742101l43.65512-31.659089-27.486558-37.865731-92.317278 67.021301 1.877639 2.503519h74.271077zM655.456879 988.742101v-218.849323l-38.491611-13.143477v231.9928h38.491611z" fill="#4198C4" p-id="14850"></path><path d="M528.976991 239.929009c-66.186795 3.077243-134.877109 21.332072-184.217304 54.973114C272.105466 344.242319 245.349103 448.086218 255.98906 527.312177c27.90381 208.626619 227.872425 254.576632 272.987931 258.227597z" fill="#FFC695" p-id="14851"></path><path d="M524.543675 239.929009c66.186795 3.077243 130.391637 21.332072 179.836146 54.973114 72.706377 49.340195 84.911034 152.610372 80.008308 232.410054-6.623895 108.068589-123.611272 254.263692-259.844454 258.227597z" fill="#FFC695" p-id="14852"></path><path d="M420.908402 532.423529a28.477533 28.477533 0 1 1-28.477533-28.477534 28.425377 28.425377 0 0 1 28.477533 28.477534zM685.186172 532.423529a28.477533 28.477533 0 1 1-28.477533-28.477534 28.477533 28.477533 0 0 1 28.477533 28.477534z" fill="#333331" p-id="14853"></path><path d="M565.799589 600.435807a22.427362 22.427362 0 0 1-22.896771 21.957951h-36.405345a22.375205 22.375205 0 0 1-22.844615-21.957951 22.375205 22.375205 0 0 1 22.844615-21.905795h36.144562a22.427362 22.427362 0 0 1 22.896771 21.905795z" fill="#F29555" p-id="14854"></path><path d="M583.950105 650.245412a13.143477 13.143477 0 0 0-14.65602 11.317994c-0.521567 3.442339-5.841545 30.615956-44.698253 32.441439-38.908864-1.825483-44.228843-28.9991-44.75041-32.441439a13.143477 13.143477 0 0 0-26.078327 3.390183c2.399206 19.037179 20.288939 53.095475 70.098544 55.286054h1.460386c49.757449-2.190579 67.803651-36.509658 70.046388-55.286054a13.195634 13.195634 0 0 0-11.422308-14.708177z" fill="#FF0000" p-id="14855"></path><path d="M393.265375 359.054809s175.40283 162.520136 399.154879 131.591239c0 0 21.905795-298.283909-276.43027-298.283908S259.222773 441.305853 259.222773 441.305853s55.077427-12.100344 134.042602-82.251044z" fill="#74320A" p-id="14856"></path><path d="M400.932404 330.107865l-54.242921-122.724608-55.755464 77.713415-1.669013-2.607833-96.124715-8.345064 57.789574 121.055595 55.286054-78.965175 94.716485 13.87367z" fill="#FF0000" p-id="14857"></path></svg>