<?xml version="1.0" standalone="no"?><!DOCTYPE svg PUBLIC "-//W3C//DTD SVG 1.1//EN" "http://www.w3.org/Graphics/SVG/1.1/DTD/svg11.dtd"><svg t="1573659553754" class="icon" viewBox="0 0 1024 1024" version="1.1" xmlns="http://www.w3.org/2000/svg" p-id="14983" xmlns:xlink="http://www.w3.org/1999/xlink" width="200" height="200"><defs><style type="text/css"></style></defs><path d="M512 0a394.24 394.24 0 1 0 394.24 394.24A394.24 394.24 0 0 0 512 0z m0 660.48a266.24 266.24 0 1 1 266.24-266.24 266.5472 266.5472 0 0 1-266.24 266.24z" fill="#E563A7" p-id="14984"></path><path d="M204.8 829.44m51.2 0l512 0q51.2 0 51.2 51.2l0 0q0 51.2-51.2 51.2l-512 0q-51.2 0-51.2-51.2l0 0q0-51.2 51.2-51.2Z" fill="#E563A7" p-id="14985"></path><path d="M563.2 732.16m0 51.2l0 189.44q0 51.2-51.2 51.2l0 0q-51.2 0-51.2-51.2l0-189.44q0-51.2 51.2-51.2l0 0q51.2 0 51.2 51.2Z" fill="#E563A7" p-id="14986"></path></svg>