<?xml version="1.0" encoding="UTF-8"?>
<svg width="171px" height="167px" viewBox="0 0 171 167" version="1.1" xmlns="http://www.w3.org/2000/svg" xmlns:xlink="http://www.w3.org/1999/xlink">
    <!-- Generator: Sketch 61 (89581) - https://sketch.com -->
    <title>shop</title>
    <desc>Created with Sketch.</desc>
    <g id="Page-1" stroke="none" stroke-width="1" fill="none" fill-rule="evenodd">
        <g id="shop" fill="#FFFFFF" fill-rule="nonzero">
            <path d="M147.898438,152.092708 C147.909578,153.206425 147.474367,154.278243 146.689949,155.068924 C145.905531,155.859605 144.837207,156.303325 143.723438,156.301042 L27.0734375,156.301042 C24.7577651,156.289562 22.8892107,154.404224 22.8984375,152.088542 L22.8984375,110.463542 L14.5650977,110.463542 L14.5650977,152.088542 C14.5581941,159.004961 20.1570242,164.618711 27.0734375,164.630211 L143.723438,164.630211 C147.047319,164.632443 150.235219,163.310742 152.582429,160.957277 C154.929639,158.603811 156.242851,155.412406 156.23184,152.088542 L156.23184,110.463542 L147.898438,110.463542 L147.898438,152.088542 L147.898438,152.092708 Z M146.335938,92.8927084 C136.305647,96.423194 125.165451,92.572219 119.456771,83.6010416 L111.535938,71.1260416 L104.956771,84.3510416 C101.292566,91.7965363 93.7050295,96.5023614 85.4067709,96.4761514 C77.1074818,96.4985895 69.519321,91.7943824 65.8484375,84.3510416 L59.2651041,71.1260416 L51.3526041,83.6010416 C45.6553317,92.5967013 34.4918464,96.4533353 24.4567709,92.8927084 C13.2401043,87.796875 7.5692709,74.559375 11.7859375,62.8760416 L19.6942709,40.946875 L27.0026041,12.2302084 C27.1859375,11.4885418 28.5026041,10.4635416 29.2692709,10.4635416 L141.848438,10.4635416 C142.631771,10.4635416 143.927604,11.4677082 144.115104,12.2302084 L151.598438,42.1635416 L159.006771,62.8177084 C163.223438,74.509375 157.548438,87.7635418 146.335938,92.8927084 M166.844271,59.9885416 L159.681771,40.1427084 L152.198438,10.209375 C151.085938,5.7427084 146.448438,2.1302084 141.848438,2.1302084 L29.2651041,2.1302084 C24.6651041,2.1302084 20.0276041,5.7677084 18.9151041,10.2135416 L12.1067709,37.4427084 L11.8567709,38.1135416 L3.9442709,60.046875 C-1.7848957,75.9385416 6.0276043,93.871875 21.4067709,100.617708 C35.2692709,105.692708 50.6567709,100.251042 58.3901041,88.0635416 C63.4910044,98.3169378 73.9546401,104.801035 85.4067709,104.805209 C96.8596327,104.807293 107.325066,98.3210815 112.419271,88.0635416 C120.285266,100.39105 135.653066,105.60831 149.398438,100.617708 C164.773438,93.834375 172.590104,75.909375 166.844271,59.9927084" id="形状" stroke="#FFFFFF" stroke-width="3"></path>
            <path d="M131.227604,52.1302084 L39.5692709,52.1302084 C37.2680845,52.1302084 35.4026043,53.9956886 35.4026043,56.296875 C35.4026043,58.5980614 37.2680845,60.4635416 39.5692709,60.4635416 L131.227604,60.4635416 C133.528791,60.4635416 135.394271,58.5980614 135.394271,56.296875 C135.394271,53.9956886 133.528791,52.1302084 131.227604,52.1302084" id="路径"></path>
        </g>
    </g>
</svg>