<?xml version="1.0" standalone="no"?><!DOCTYPE svg PUBLIC "-//W3C//DTD SVG 1.1//EN" "http://www.w3.org/Graphics/SVG/1.1/DTD/svg11.dtd"><svg t="1573243641486" class="icon" viewBox="0 0 1024 1024" version="1.1" xmlns="http://www.w3.org/2000/svg" p-id="8967" xmlns:xlink="http://www.w3.org/1999/xlink" width="200" height="200"><defs><style type="text/css"></style></defs><path d="M392.192 133.12a30.72 30.72 0 1 1 0-61.44h205.056a30.72 30.72 0 1 1 0 61.44H392.1408z m383.8464 0a30.72 30.72 0 1 1 0-61.44H844.8A133.12 133.12 0 0 1 977.92 204.8v665.6a133.12 133.12 0 0 1-133.12 133.12h-665.6A133.12 133.12 0 0 1 46.08 870.4V204.8A133.12 133.12 0 0 1 179.2 71.68h45.6704a30.72 30.72 0 1 1 0 61.44H179.2A71.68 71.68 0 0 0 107.52 204.8v665.6a71.68 71.68 0 0 0 71.68 71.68h665.6a71.68 71.68 0 0 0 71.68-71.68V204.8a71.68 71.68 0 0 0-71.68-71.68h-68.7616z" fill="#333333" p-id="8968"></path><path d="M276.48 64.3072a30.72 30.72 0 0 1 61.44 0v97.1264a30.72 30.72 0 1 1-61.44 0V64.3072zM655.36 64.3072a30.72 30.72 0 0 1 61.44 0v97.1264a30.72 30.72 0 0 1-61.44 0V64.3072zM332.8 414.72a30.72 30.72 0 1 1 0-61.44h301.9264a30.72 30.72 0 1 1 0 61.44H332.8zM332.8 593.92a30.72 30.72 0 0 1 0-61.44h424.192a30.72 30.72 0 1 1 0 61.44H332.8zM332.8 778.24a30.72 30.72 0 0 1 0-61.44h153.6a30.72 30.72 0 0 1 0 61.44h-153.6z" fill="#333333" p-id="8969"></path><path d="M235.52 384m-51.2 0a51.2 51.2 0 1 0 102.4 0 51.2 51.2 0 1 0-102.4 0Z" fill="#333333" p-id="8970"></path><path d="M235.52 563.2m-51.2 0a51.2 51.2 0 1 0 102.4 0 51.2 51.2 0 1 0-102.4 0Z" fill="#333333" p-id="8971"></path><path d="M235.52 747.52m-51.2 0a51.2 51.2 0 1 0 102.4 0 51.2 51.2 0 1 0-102.4 0Z" fill="#333333" p-id="8972"></path></svg>