<?xml version="1.0" standalone="no"?><!DOCTYPE svg PUBLIC "-//W3C//DTD SVG 1.1//EN" "http://www.w3.org/Graphics/SVG/1.1/DTD/svg11.dtd"><svg t="1576089609441" class="icon" viewBox="0 0 1089 1024" version="1.1" xmlns="http://www.w3.org/2000/svg" p-id="2091" data-spm-anchor-id="a313x.7781069.0.i3" xmlns:xlink="http://www.w3.org/1999/xlink" width="212.6953125" height="200"><defs><style type="text/css"></style></defs><path d="M736.2398 160.7194c49.025812 0 95.493755 21.31557 130.735498 59.825701 17.620871 19.326117 31.547044 41.920622 41.352207 67.215099 10.231474 26.431307 15.347211 54.425756 15.347211 83.414932 0 71.904524-32.968082 123.488204-62.099362 168.961421C826.333611 595.414932 761.250069 666.466833 673.572023 745.902859c-52.578407 47.604774-101.035803 87.109631-122.351374 104.019983-3.836803 2.98418-9.236747 3.126284-13.215653 0-20.17874-15.915626-67.783514-54.283653-122.493478-103.593672-87.82015-79.436026-152.761588-150.630031-187.861227-205.766306v-0.284207c-29.131279-45.473217-62.099362-97.056897-62.099361-169.103525 0-28.989176 5.115737-56.983625 15.34721-83.414932 9.805162-25.294477 23.731335-47.888981 41.352207-67.215099 35.241743-38.652234 81.709686-59.825701 130.735498-59.825701 27.568138 0 54.425756 6.678879 79.578129 20.036637 25.010269 13.215654 47.46267 32.683875 64.941438 56.415209l40.641688 55.136276c3.126284 4.263114 9.378851 4.263114 12.505134 0l40.925895-54.994172c36.23647-48.5995 88.95698-76.593949 144.661671-76.59395m0-58.404662c-75.315015 0-145.230086 37.941715-191.555925 100.325284C498.642243 140.256453 428.30086 102.314738 352.985845 102.314738c-135.709131 0-245.981682 120.788232-245.981682 269.002498 0 88.388565 39.362753 150.630031 71.336109 200.650569 92.367472 145.230086 324.849292 325.275604 334.796558 332.807105 9.520955 7.531502 20.462948 17.052456 31.404941 17.052456 10.941993 0 22.026089-9.520955 31.40494-17.052456 9.947266-7.531502 242.002775-188.145434 334.796558-332.807105 31.973356-49.878435 71.336109-112.262004 71.336109-200.650569C982.221482 223.10297 871.948931 102.314738 736.2398 102.314738z" fill="#2196F3" p-id="2092" data-spm-anchor-id="a313x.7781069.0.i1" class=""></path></svg>