<?xml version="1.0" standalone="no"?><!DOCTYPE svg PUBLIC "-//W3C//DTD SVG 1.1//EN" "http://www.w3.org/Graphics/SVG/1.1/DTD/svg11.dtd"><svg t="1573239675991" class="icon" viewBox="0 0 1024 1024" version="1.1" xmlns="http://www.w3.org/2000/svg" p-id="2164" data-spm-anchor-id="a313x.7781069.0.i0" xmlns:xlink="http://www.w3.org/1999/xlink" width="200" height="200"><defs><style type="text/css"></style></defs><path d="M726.426 480.307H542.72V296.653a30.72 30.72 0 0 0-61.44 0v183.654H297.626a30.72 30.72 0 1 0 0 61.44H481.28v183.706a30.72 30.72 0 0 0 61.44 0V541.747h183.706a30.72 30.72 0 0 0 0-61.44z" fill="#2196F3" p-id="2165" data-spm-anchor-id="a313x.7781069.0.i3" class="selected"></path><path d="M794.982 228.045a400.026 400.026 0 1 0 0 565.965 400.691 400.691 0 0 0 0-565.965z m-43.468 522.547a338.74 338.74 0 1 1 99.225-239.565 336.538 336.538 0 0 1-99.225 239.565z" fill="#2196F3" p-id="2166" data-spm-anchor-id="a313x.7781069.0.i1" class="selected"></path></svg>