<?xml version="1.0" standalone="no"?><!DOCTYPE svg PUBLIC "-//W3C//DTD SVG 1.1//EN" "http://www.w3.org/Graphics/SVG/1.1/DTD/svg11.dtd"><svg t="1574257518821" class="icon" viewBox="0 0 1024 1024" version="1.1" xmlns="http://www.w3.org/2000/svg" p-id="7609" xmlns:xlink="http://www.w3.org/1999/xlink" width="200" height="200"><defs><style type="text/css"></style></defs><path d="M722.802573 445.380437L442.411651 725.77136l-141.251725-141.251725a40.000488 40.000488 0 0 0-56.56319 56.575691l169.527069 169.527069a40.000488 40.000488 0 0 0 56.563191 0L779.315763 501.943627a40.000488 40.000488 0 0 0-56.56319-56.56319z m0 0" p-id="7610" data-spm-anchor-id="a313x.7781069.0.i27" class="selected" fill="#ffffff"></path><path d="M852.166652 163.00199h-115.951415a86.788559 86.788559 0 0 0-85.001038-85.401043 86.81356 86.81356 0 0 0-86.251052-77.600947h-106.001294a86.81356 86.81356 0 0 0-86.251053 77.600947 86.776059 86.776059 0 0 0-85.001038 85.401043H171.808347a85.001038 85.001038 0 0 0-85.001037 85.001037v690.995935a85.001038 85.001038 0 0 0 85.001037 85.001038h680.358305a85.001038 85.001038 0 0 0 85.001038-85.001038V248.040528a85.001038 85.001038 0 0 0-85.001038-85.001038z m-477.705831-25.41281h27.85034a30.000366 30.000366 0 0 0 30.000366-30.000367V86.688558A26.725326 26.725326 0 0 1 458.999353 60.000732h106.001294a26.725326 26.725326 0 0 1 26.700326 26.687826v20.900255a30.000366 30.000366 0 0 0 30.000366 30.000367h27.85034a26.737826 26.737826 0 0 1 26.662826 25.41281v70.275858a26.712826 26.712826 0 0 1-26.687826 26.700326H374.460821a26.725326 26.725326 0 0 1-26.700326-26.700326v-69.000843-1.250015a26.712826 26.712826 0 0 1 26.662826-25.41281zM877.191958 938.998962a25.062806 25.062806 0 0 1-25.000305 25.000306H171.808347a25.062806 25.062806 0 0 1-25.000305-25.000306V248.040528a25.000305 25.000305 0 0 1 25.000305-25.000305h115.913915v10.300125a86.80106 86.80106 0 0 0 86.701059 86.701059h275.128358a86.788559 86.788559 0 0 0 86.688558-86.701059v-10.300125h115.926415a25.000305 25.000305 0 0 1 25.000306 25.000305z m0 0" p-id="7611" data-spm-anchor-id="a313x.7781069.0.i24" class="selected" fill="#ffffff"></path></svg>