<?xml version="1.0" standalone="no"?><!DOCTYPE svg PUBLIC "-//W3C//DTD SVG 1.1//EN" "http://www.w3.org/Graphics/SVG/1.1/DTD/svg11.dtd"><svg t="1574095908887" class="icon" viewBox="0 0 1024 1024" version="1.1" xmlns="http://www.w3.org/2000/svg" p-id="2625" xmlns:xlink="http://www.w3.org/1999/xlink" width="200" height="200"><defs><style type="text/css"></style></defs><path d="M195.163501 828.349383c-41.173247-41.173247-73.492549-89.102726-96.058302-142.454364-23.348817-55.204005-35.187813-113.880687-35.187813-174.40258s11.838995-119.199597 35.187813-174.40258c22.565753-53.352661 54.885055-101.281117 96.058302-142.454364 41.173247-41.173247 89.102726-73.492549 142.454364-96.058302 14.953875-6.324831 30.164341-11.797082 45.595619-16.424932l0 237.50879 63.381203 0L446.594688 63.388359l0-63.381203-63.381203 0L126.941815 0.007156l0 63.381203 138.28245 0c-157.802838 87.092928-264.688081 255.11343-264.688081 448.104081 0 260.507988 194.756124 475.521562 446.610533 507.400263 0-21.308351 0.397666-49.250261 0.397666-63.877007-37.78133-5.423182-74.566963-15.65209-109.925496-30.60801C284.266227 901.841932 236.337771 869.52263 195.163501 828.349383z" p-id="2626"></path><path d="M1022.441538 511.492439c0-260.507988-194.756124-475.521562-446.610533-507.401285 0 21.308351-0.397666 49.250261-0.397666 63.877007 37.78133 5.423182 74.566963 15.65209 109.925496 30.60801 53.352661 22.565753 101.281117 54.885055 142.454364 96.058302 41.173247 41.173247 73.492549 89.102726 96.058302 142.454364 23.348817 55.204005 35.187813 113.880687 35.187813 174.40258 0 60.521893-11.838995 119.199597-35.187813 174.40258-22.565753 53.352661-54.885055 101.281117-96.058302 142.454364-41.173247 41.173247-89.102726 73.492549-142.454364 96.058302-14.953875 6.324831-30.164341 11.797082-45.595619 16.424932L639.763215 703.323827l-63.381203 0 0 256.272693 0 63.381203 63.381203 0 256.272693 0 0-63.381203L757.753457 959.59652C915.555273 872.503591 1022.441538 704.482068 1022.441538 511.492439z" p-id="2627"></path></svg>