<?xml version="1.0" encoding="UTF-8"?>
<svg width="201px" height="202px" viewBox="0 0 201 202" version="1.1" xmlns="http://www.w3.org/2000/svg" xmlns:xlink="http://www.w3.org/1999/xlink">
    <!-- Generator: Sketch 61 (89581) - https://sketch.com -->
    <title>task_edit</title>
    <desc>Created with Sketch.</desc>
    <g id="页面-1" stroke="none" stroke-width="1" fill="none" fill-rule="evenodd">
        <g id="-" transform="translate(-998.000000, -663.000000)" fill="#646C9A" fill-rule="nonzero">
            <g id="task_edit" transform="translate(1000.000000, 665.000000)">
                <path d="M100.247427,197.615434 C64.8010971,198.713212 31.574652,180.140217 13.5319926,149.143039 C-4.51066673,118.145861 -4.51066673,79.6360271 13.5319926,48.638849 C31.574652,17.6416709 64.8010971,-0.931324579 100.247427,0.16645401 C102.745197,0.166454048 104.77004,2.22228939 104.77004,4.75829079 C104.77004,7.29429219 102.745197,9.35012753 100.247427,9.35012757 C64.5551135,9.33155312 32.3671224,31.1468798 18.695587,64.6216738 C5.02405164,98.0964678 12.5619973,136.636849 37.7938071,162.267997 C63.025617,187.899146 100.981117,195.572226 133.958271,181.708597 C166.935425,167.844967 188.438377,135.175492 188.438382,98.9368622 C188.438382,96.4008608 190.463225,94.3450255 192.960995,94.3450255 C195.458765,94.3450255 197.483608,96.4008608 197.483608,98.9368622 C197.408821,153.421974 153.911184,197.56485 100.247427,197.615434 L100.247427,197.615434 Z" id="路径" stroke="#646C9A" stroke-width="3"></path>
                <path d="M122.724814,104.034505 L100.111749,103.620536 C97.6139786,103.620536 95.5891358,101.5647 95.5891358,99.0286991 L95.1815441,76.0695153 C95.1630106,74.8331299 95.635863,73.6411825 96.4936583,72.7633929 L164.73989,3.65624998 C166.503878,1.87588657 169.352785,1.87588657 171.116774,3.65624998 L194.001196,26.8909439 C194.857384,27.7531374 195.338977,28.9267919 195.338977,30.151148 C195.338977,31.375504 194.857384,32.5491585 194.001196,33.4113521 L126.162,102.518495 C125.285955,103.50442 124.032442,104.057039 122.724814,104.034505 L122.724814,104.034505 Z M104.634362,94.4827807 L120.870543,94.8042091 L184.187126,30.518495 L167.950945,13.3909439 L104.408231,77.90625 L104.634362,94.4827807 Z" id="形状"></path>
            </g>
        </g>
    </g>
</svg>