<?xml version="1.0" standalone="no"?><!DOCTYPE svg PUBLIC "-//W3C//DTD SVG 1.1//EN" "http://www.w3.org/Graphics/SVG/1.1/DTD/svg11.dtd"><svg t="1573281510532" class="icon" viewBox="0 0 1029 1024" version="1.1" xmlns="http://www.w3.org/2000/svg" p-id="12263" xmlns:xlink="http://www.w3.org/1999/xlink" width="200.9765625" height="200"><defs><style type="text/css"></style></defs><path d="M515.859084 1009.570909a500.596364 500.596364 0 1 1 0-1000.727273 23.272727 23.272727 0 0 1 0 46.545455 454.050909 454.050909 0 1 0 453.818181 454.050909 23.272727 23.272727 0 1 1 46.545455 0 500.829091 500.829091 0 0 1-500.363636 500.130909z" fill="#222222" p-id="12264"></path><path d="M631.524538 535.272727l-116.363636-2.094545a23.272727 23.272727 0 0 1-23.272727-23.272727l-2.094546-116.363637a23.272727 23.272727 0 0 1 6.749091-16.756363L847.728175 26.530909a23.272727 23.272727 0 0 1 32.814545 0l117.76 117.76a23.272727 23.272727 0 0 1 0 33.047273l-349.090909 350.254545a23.272727 23.272727 0 0 1-17.687273 7.68z m-93.090909-48.407272l83.549091 1.62909 325.818182-325.818181-83.549091-86.807273-326.981818 326.981818z" fill="#222222" p-id="12265"></path></svg>