<?xml version="1.0" encoding="UTF-8"?>
<svg width="200px" height="200px" viewBox="0 0 200 200" version="1.1" xmlns="http://www.w3.org/2000/svg" xmlns:xlink="http://www.w3.org/1999/xlink">
    <!-- Generator: Sketch 61 (89581) - https://sketch.com -->
    <title>task_xiayi</title>
    <desc>Created with Sketch.</desc>
    <g id="页面-1" stroke="none" stroke-width="1" fill="none" fill-rule="evenodd">
        <g id="-" transform="translate(-730.000000, -665.000000)" fill="#646C9A" fill-rule="nonzero">
            <g id="task_xiayi" transform="translate(730.000000, 665.000000)">
                <path d="M100,0 C44.771525,0 0,44.771525 0,100 C0,155.228475 44.771525,200 100,200 C155.228475,200 200,155.228475 200,100 C199.953073,44.7909743 155.209026,0.0469265584 100,0 Z M100,187.234043 C51.8219686,187.234043 12.7659574,148.178031 12.7659574,100 C12.7659574,51.8219686 51.8219686,12.7659574 100,12.7659574 C148.178031,12.7659574 187.234043,51.8219686 187.234043,100 C187.163735,148.148879 148.148879,187.163735 100,187.234043 Z" id="形状"></path>
                <path d="M129.531915,104 L104.255319,129.276596 L104.255319,55.319149 C104.255319,51.7939272 101.397562,48.9361703 97.8723404,48.9361703 C94.3471186,48.9361703 91.4893617,51.7939272 91.4893617,55.319149 L91.4893617,127.659574 L70.7659574,104.170213 C68.4158096,101.526296 64.3673206,101.28815 61.7234043,103.638298 C59.079488,105.988446 58.8413416,110.036935 61.1914895,112.680851 L93.106383,148.851064 C94.296758,150.247818 96.0371696,151.055867 97.8723404,151.06383 C99.5646413,151.06234 101.187086,150.388872 102.382979,149.191489 L138.553191,113.021277 C140.896671,110.5063 140.827522,106.587151 138.396781,104.15641 C135.96604,101.725669 132.046891,101.656521 129.531915,104 L129.531915,104 Z" id="路径"></path>
            </g>
        </g>
    </g>
</svg>