<?xml version="1.0" standalone="no"?><!DOCTYPE svg PUBLIC "-//W3C//DTD SVG 1.1//EN" "http://www.w3.org/Graphics/SVG/1.1/DTD/svg11.dtd"><svg t="1573281230648" class="icon" viewBox="0 0 1024 1024" version="1.1" xmlns="http://www.w3.org/2000/svg" p-id="9822" xmlns:xlink="http://www.w3.org/1999/xlink" width="200" height="200"><defs><style type="text/css"></style></defs><path d="M694.9 469.6c10.9 10.9 10.9 28.6 0 39.7-10.9 10.9-28.6 10.9-39.7 0L539.9 393.8v296.5c0 15.5-12.5 28.1-28.1 28.1-15.6 0-28.1-12.5-28.1-28.1V393.8L368.4 509.2c-10.8 10.5-28.1 10.5-39 0-11.1-10.7-11.4-28.5-0.7-39.6l158.4-158.4c15-9.6 34.2-9.6 49.3 0l158.5 158.4z" fill="#072B3F" p-id="9823"></path><path d="M512.1 63.4C264.7 63.4 64 264 64 511.5s200.6 448.1 448.1 448.1S960.2 759 960.2 511.5 759.5 63.4 512.1 63.4z m0 840.1C295.6 903.5 120 728 120 511.5s175.6-392.1 392.1-392.1S904.2 295 904.2 511.5s-175.6 392-392.1 392z" fill="#072B3F" p-id="9824"></path></svg>