<?xml version="1.0" encoding="UTF-8"?>
<svg width="199px" height="199px" viewBox="0 0 199 199" version="1.1" xmlns="http://www.w3.org/2000/svg" xmlns:xlink="http://www.w3.org/1999/xlink">
    <!-- Generator: Sketch 61 (89581) - https://sketch.com -->
    <title>task_shangyi</title>
    <desc>Created with Sketch.</desc>
    <g id="页面-1" stroke="none" stroke-width="1" fill="none" fill-rule="evenodd">
        <g id="-" transform="translate(-461.000000, -664.000000)" fill="#646C9A" fill-rule="nonzero">
            <g id="task_shangyi" transform="translate(461.000000, 664.000000)">
                <path d="M140.025746,90.2432528 C142.444957,92.6624645 142.444957,96.5909091 140.025746,99.0545099 C137.606534,101.473722 133.678089,101.473722 131.214489,99.0545099 L105.624112,73.4197443 L105.624112,139.22674 C105.624112,142.666903 102.849787,145.463423 99.387429,145.463423 C95.925071,145.463423 93.1507457,142.689098 93.1507457,139.22674 L93.1507457,73.4197443 L67.5603693,99.0323153 C65.1633523,101.362749 61.3236861,101.362749 58.9044744,99.0323153 C56.4408736,96.6574929 56.3742898,92.7068537 58.7491122,90.2432528 L93.9053622,55.0870028 C97.2345526,52.956321 101.495916,52.956321 104.847301,55.0870028 L140.025746,90.2432528 L140.025746,90.2432528 Z" id="路径"></path>
                <path d="M99.4540128,0.0887784091 C44.5445668,0.0887784091 0,44.6111506 0,99.5427912 C0,154.474432 44.5223722,198.996804 99.4540128,198.996804 C154.385653,198.996804 198.908026,154.474432 198.908026,99.5427912 C198.908026,44.6111506 154.363459,0.0887784091 99.4540128,0.0887784091 Z M99.4540128,186.545632 C51.4026989,186.545632 12.4289773,147.594105 12.4289773,99.5427912 C12.4289773,51.4914773 51.4026989,12.5177557 99.4540128,12.5177557 C147.505327,12.5177557 186.479048,51.4914773 186.479048,99.5427912 C186.479048,147.594105 147.505327,186.545632 99.4540128,186.545632 Z" id="形状"></path>
            </g>
        </g>
    </g>
</svg>