<?xml version="1.0" standalone="no"?><!DOCTYPE svg PUBLIC "-//W3C//DTD SVG 1.1//EN" "http://www.w3.org/Graphics/SVG/1.1/DTD/svg11.dtd"><svg t="1573281355710" class="icon" viewBox="0 0 1024 1024" version="1.1" xmlns="http://www.w3.org/2000/svg" p-id="10624" xmlns:xlink="http://www.w3.org/1999/xlink" width="200" height="200"><defs><style type="text/css"></style></defs><path d="M512 0A512 512 0 1 0 1024 512 512.435745 512.435745 0 0 0 512 0z m0 958.638298A446.638298 446.638298 0 1 1 958.638298 512 447.291915 447.291915 0 0 1 512 958.638298z" fill="#231815" p-id="10625"></path><path d="M663.203404 532.48l-129.41617 129.41617V283.234043a32.680851 32.680851 0 0 0-65.361702 0v370.382978l-106.10383-120.265532a32.680851 32.680851 0 0 0-49.021276 43.574468l163.404255 185.19149a32.245106 32.245106 0 0 0 24.401702 11.329362 32.680851 32.680851 0 0 0 23.094468-9.586383l185.191489-185.19149a32.680851 32.680851 0 0 0-46.188936-46.188936z" fill="#231815" p-id="10626"></path></svg>