<?xml version="1.0" encoding="UTF-8"?>
<svg width="200px" height="200px" viewBox="0 0 200 200" version="1.1" xmlns="http://www.w3.org/2000/svg" xmlns:xlink="http://www.w3.org/1999/xlink">
    <!-- Generator: Sketch 61 (89581) - https://sketch.com -->
    <title>task_delete</title>
    <desc>Created with Sketch.</desc>
    <g id="页面-1" stroke="none" stroke-width="1" fill="none" fill-rule="evenodd">
        <g id="-" transform="translate(-220.000000, -665.000000)" fill="#646C9A" fill-rule="nonzero">
            <g id="task_delete" transform="translate(220.000000, 665.000000)">
                <path d="M100,200 C45,200 0,155.35 0,100 C0,44.65 45,0 100,0 C155,0 200,44.65 200,100 C200,155.35 155,200 100,200 Z M100,13.9541016 C52.2708984,13.9541016 13.6375,52.5585938 13.6375,100 C13.6375,147.4375 52.2708984,186.041602 100,186.041602 C147.729102,186.041602 186.366602,147.433594 186.366602,100 C186.366602,52.5583984 147.729102,13.9541016 100,13.9541016 Z" id="形状"></path>
                <path d="M67.275,95.35 L137.275,95.35 C140.9125,95.35 144.1,98.6041016 144.1,102.329102 C144.1,106.05 140.9125,109.304102 137.275,109.304102 L67.275,109.304102 C63.6375,109.304102 60.4583941,106.05 60.4583941,102.329102 C60.4541016,98.6041016 63.6375,95.35 67.275,95.35 L67.275,95.35 Z" id="路径"></path>
            </g>
        </g>
    </g>
</svg>