<?xml version="1.0" standalone="no"?><!DOCTYPE svg PUBLIC "-//W3C//DTD SVG 1.1//EN" "http://www.w3.org/Graphics/SVG/1.1/DTD/svg11.dtd"><svg t="1573280976815" class="icon" viewBox="0 0 1046 1024" version="1.1" xmlns="http://www.w3.org/2000/svg" p-id="8875" xmlns:xlink="http://www.w3.org/1999/xlink" width="204.296875" height="200"><defs><style type="text/css"></style></defs><path d="M512 1024C230.4 1024 0 795.392 0 512S230.4 0 512 0s512 228.608 512 512-230.4 512-512 512z m0-952.555C267.627 71.445 69.824 269.1 69.824 512c0 242.88 197.803 440.533 442.176 440.533S954.197 754.86 954.197 512c0-242.901-197.824-440.555-442.197-440.555z" fill="#646C9A" p-id="8876"></path><path d="M344.448 488.192h358.4c18.624 0 34.944 16.661 34.944 35.733 0 19.051-16.32 35.712-34.944 35.712h-358.4c-18.624 0-34.901-16.661-34.901-35.712-0.022-19.072 16.277-35.733 34.901-35.733z" fill="#646C9A" p-id="8877"></path></svg>