<?xml version="1.0" standalone="no"?><!DOCTYPE svg PUBLIC "-//W3C//DTD SVG 1.1//EN" "http://www.w3.org/Graphics/SVG/1.1/DTD/svg11.dtd"><svg t="1573341300660" class="icon" viewBox="0 0 1024 1024" version="1.1" xmlns="http://www.w3.org/2000/svg" p-id="3083" xmlns:xlink="http://www.w3.org/1999/xlink" width="200" height="200"><defs><style type="text/css"></style></defs><path d="M512 1024A512 512 0 1 1 512 0a512 512 0 0 1 0 1024z" fill="#2196F3" p-id="3084" data-spm-anchor-id="a313x.7781069.0.i2" class="selected"></path><path d="M811.52 349.013333a33.024 33.024 0 0 0-46.848 0L443.221333 670.378667 260.266667 487.509333a32.426667 32.426667 0 0 0-45.909334 45.909334l199.082667 199.082666a33.706667 33.706667 0 0 0 5.802667 8.704 33.024 33.024 0 0 0 46.848 0L811.52 395.861333a33.024 33.024 0 0 0 0-46.848z" fill="#FFFFFF" p-id="3085"></path></svg>