<?xml version="1.0" standalone="no"?><!DOCTYPE svg PUBLIC "-//W3C//DTD SVG 1.1//EN" "http://www.w3.org/Graphics/SVG/1.1/DTD/svg11.dtd"><svg t="1574013710835" class="icon" viewBox="0 0 1024 1024" version="1.1" xmlns="http://www.w3.org/2000/svg" p-id="4986" xmlns:xlink="http://www.w3.org/1999/xlink" width="200" height="200"><defs><style type="text/css"></style></defs><path d="M512 1024a512 512 0 1 1 0-1024 512 512 0 0 1 0 1024zM443.1872 604.091733l-114.688-115.0976a32.3584 32.3584 0 0 0-45.943467 0 32.631467 32.631467 0 0 0 0 46.011734L420.2496 673.109333a32.290133 32.290133 0 0 0 45.8752 0l275.319467-276.206933a32.631467 32.631467 0 0 0 0-46.011733 32.3584 32.3584 0 0 0-45.8752 0L443.1872 604.091733z" p-id="4987" data-spm-anchor-id="a313x.7781069.0.i2" class="selected" fill="#2196F3"></path></svg>