<?xml version="1.0" standalone="no"?><!DOCTYPE svg PUBLIC "-//W3C//DTD SVG 1.1//EN" "http://www.w3.org/Graphics/SVG/1.1/DTD/svg11.dtd"><svg t="1573056842927" class="icon" viewBox="0 0 1024 1024" version="1.1" xmlns="http://www.w3.org/2000/svg" p-id="32254" xmlns:xlink="http://www.w3.org/1999/xlink" width="200" height="200"><defs><style type="text/css"></style></defs><path d="M0 511.70304c0 282.24512 228.80256 511.04768 511.0528 511.04768 282.24512 0 511.04768-228.80256 511.04768-511.04768 0-282.25024-228.80256-511.0528-511.04768-511.0528C228.80256 0.65024 0 229.4528 0 511.70304z m0 0" fill="#3E7FF7" p-id="32255"></path><path d="M340.70016 277.46816h340.70016a21.35552 21.35552 0 0 1 21.29408 21.29408v434.39616a21.35552 21.35552 0 0 1-21.29408 21.29408c-3.19488 0-6.38976-1.05984-9.58464-2.12992l-150.12352-76.65664c-6.38976-3.19488-12.7744-3.19488-19.16416 0l-152.25344 76.65664a21.3248 21.3248 0 0 1-28.74368-9.58464c-1.06496-3.18976-2.12992-6.38976-2.12992-9.57952V298.76224a21.36576 21.36576 0 0 1 21.2992-21.29408z m0 0" fill="#FFFFFF" p-id="32256"></path><path d="M511.13984 549.45792l-49.26464 17.68448c-6.31296 2.52416-13.89056-1.26464-16.41984-7.5776 0-1.25952-1.25952-2.52416-1.25952-5.05344l1.25952-53.04832-31.57504-41.68192c-3.79392-5.05344-3.79392-13.89568 2.52416-17.67936 1.25952-1.26464 2.52416-1.26464 3.7888-2.52416l50.52416-15.1552 29.056-42.94656c3.7888-6.31296 11.3664-7.5776 17.67936-3.7888l3.7888 3.7888 29.056 42.94656 50.52416 15.1552c6.31296 2.52416 10.10176 8.83712 8.83712 15.1552 0 1.26464-1.25952 2.52416-2.52416 3.79392l-31.57504 41.68192 1.25952 53.04832c0 7.5776-5.05344 12.62592-12.63104 12.62592-1.26464 0-2.52416 0-5.05344-1.25952l-47.99488-15.16544z m0 0" fill="#3E7FF7" p-id="32257"></path></svg>