<?xml version="1.0" standalone="no"?><!DOCTYPE svg PUBLIC "-//W3C//DTD SVG 1.1//EN" "http://www.w3.org/Graphics/SVG/1.1/DTD/svg11.dtd"><svg t="1572978414827" class="icon" viewBox="0 0 1024 1024" version="1.1" xmlns="http://www.w3.org/2000/svg" p-id="5537" data-spm-anchor-id="a313x.7781069.0.i11" xmlns:xlink="http://www.w3.org/1999/xlink" width="200" height="200"><defs><style type="text/css"></style></defs><path d="M116.224 30.72v993.28l397.312-167.936 397.312 167.936V30.72h-794.624z m188.416 235.52c24.064 1.536 44.032 2.048 59.904 2.048h59.904c0-13.312-0.512-28.672-2.048-46.08h39.936c-1.536 17.408-2.048 32.768-2.048 46.08h116.224c0-13.312-0.512-28.672-2.048-46.08h39.936c-1.536 17.408-2.048 32.768-2.048 46.08h61.952c15.872 0 37.888-0.512 66.048-2.048v35.84c-26.624-1.536-48.64-2.048-66.048-2.048h-61.952c0 6.656 0.512 19.456 2.048 37.888h-39.936c1.536-15.872 2.048-28.672 2.048-37.888H460.8c0 9.216 0.512 22.016 2.048 37.888h-39.936c1.536-17.408 2.048-30.208 2.048-37.888h-59.904c-14.848 0-34.816 0.512-59.904 2.048v-35.84h-0.512z m81.92 416.256c1.536-22.528 2.048-46.592 2.048-72.192v-103.936c-25.6 26.624-50.688 49.152-75.776 68.096-8.192-11.776-17.92-24.064-30.208-35.84 28.16-14.848 54.784-33.792 80.896-57.856s49.664-50.176 71.168-77.824h-61.952c-17.408 0-39.424 0.512-66.048 2.048v-35.84c24.064 1.536 44.032 2.048 59.904 2.048h88.064c9.216-15.872 17.408-32.768 24.064-50.176 14.848 8.192 30.72 13.824 48.128 17.92-11.776 9.216-21.504 19.968-28.16 31.744h158.208c21.504 0 45.056-0.512 72.192-2.048v35.84c-26.624-1.536-50.688-2.048-72.192-2.048h-176.128c-15.872 19.968-33.792 41.984-53.76 66.048v141.824c0 25.088 0.512 49.152 2.048 72.192h-42.496z m356.352-118.272c-22.528-1.536-46.592-2.048-72.192-2.048h-50.176v75.776c0 17.408-6.144 28.672-18.944 33.792s-34.816 9.216-67.072 11.776c0-10.752-6.144-24.576-17.92-41.984 24.064 1.536 40.448 2.048 50.176 2.048 10.752 0 15.872-7.168 15.872-22.016v-59.904H506.88c-17.408 0-35.84 0.512-55.808 2.048v-35.84c19.968 1.536 39.424 2.048 57.856 2.048h72.192c0-8.192-0.512-16.896-2.048-26.112 18.432-8.192 35.84-17.92 52.224-30.208h-94.208c-19.968 0-41.472 0.512-64 2.048v-35.84c22.528 1.536 45.568 2.048 68.096 2.048h169.984v31.744c-14.848 2.56-29.184 7.68-43.008 14.848s-29.696 16.384-47.104 27.136v13.824h50.176c24.064 0 48.128-0.512 72.192-2.048l-0.512 36.864z" fill="#2196F3" p-id="5538" data-spm-anchor-id="a313x.7781069.0.i4" class=""></path><path d="M424.448 300.544c0 8.192-0.512 20.48-2.048 37.888h39.936c-1.536-15.872-2.048-28.672-2.048-37.888h116.224c0 9.216-0.512 22.016-2.048 37.888h39.936c-1.536-18.432-2.048-31.232-2.048-37.888h61.952c17.408 0 39.424 0.512 66.048 2.048v-35.84c-28.16 1.536-50.176 2.048-66.048 2.048h-61.952c0-13.312 0.512-28.672 2.048-46.08h-39.936c1.536 17.408 2.048 32.768 2.048 46.08H460.8c0-13.312 0.512-28.672 2.048-46.08h-39.936c1.536 17.408 2.048 32.768 2.048 46.08h-59.904c-15.872 0-35.84-0.512-59.904-2.048v35.84c25.088-1.536 45.568-2.048 59.904-2.048h59.392zM620.544 530.432v-13.824c17.408-10.752 32.768-19.456 47.104-27.136 13.824-7.168 28.16-12.288 43.008-14.848v-31.744h-169.984c-22.528 0-45.568-0.512-68.096-2.048v35.84c22.528-1.536 44.032-2.048 64-2.048h94.208c-15.872 11.776-33.28 22.016-52.224 30.208 1.536 9.216 2.048 17.92 2.048 26.112h-72.192c-18.432 0-37.888-0.512-57.856-2.048v35.84c19.968-1.536 38.4-2.048 55.808-2.048h75.776v59.904c0 14.848-5.12 22.016-15.872 22.016-9.216 0-26.112-0.512-50.176-2.048 11.776 17.408 17.92 31.232 17.92 41.984 31.744-2.56 54.272-6.656 67.072-11.776s18.944-16.896 18.944-33.792V563.2h50.176c25.088 0 49.152 0.512 72.192 2.048v-35.84c-24.064 1.536-48.128 2.048-72.192 2.048h-49.664v-1.024z" fill="#ffffff" p-id="5539" data-spm-anchor-id="a313x.7781069.0.i6" class=""></path><path d="M426.496 468.48c19.968-24.064 37.888-46.08 53.76-66.048h176.128c21.504 0 45.056 0.512 72.192 2.048v-35.84c-26.624 1.536-50.688 2.048-72.192 2.048h-158.208c6.656-11.776 15.872-22.528 28.16-31.744-17.408-4.096-33.28-10.24-48.128-17.92-6.656 17.408-14.848 33.792-24.064 50.176h-88.064c-15.872 0-35.84-0.512-59.904-2.048v35.84c26.624-1.536 48.64-2.048 66.048-2.048h61.952c-21.504 28.16-45.056 53.76-71.168 77.824s-53.248 43.52-80.896 57.856c11.776 11.776 22.016 24.064 30.208 35.84 25.088-18.432 50.688-41.472 75.776-68.096v103.936c0 25.088-0.512 49.152-2.048 72.192h41.984c-1.536-22.528-2.048-46.592-2.048-72.192v-141.824h0.512z" fill="#ffffff" p-id="5540" data-spm-anchor-id="a313x.7781069.0.i7" class=""></path></svg>