<?xml version="1.0" standalone="no"?><!DOCTYPE svg PUBLIC "-//W3C//DTD SVG 1.1//EN" "http://www.w3.org/Graphics/SVG/1.1/DTD/svg11.dtd"><svg t="1573243492840" class="icon" viewBox="0 0 1024 1024" version="1.1" xmlns="http://www.w3.org/2000/svg" p-id="6470" xmlns:xlink="http://www.w3.org/1999/xlink" width="200" height="200"><defs><style type="text/css"></style></defs><path d="M162.0992 0h699.2896c45.2096 2.5088 89.2416 25.856 115.0464 63.2832 17.8688 26.2656 25.6512 58.4704 25.2928 90.0608 0 228.7616-0.0512 457.5744 0 686.336-0.1536 22.1184 1.0752 44.4416-3.1232 66.304-8.0384 42.1376-35.4304 80.9984-74.0352 100.352-20.5824 10.9056-43.8272 14.9504-66.7136 17.664H164.4032c-23.5008-3.2256-47.5136-7.424-68.3008-19.4048-46.2336-24.7808-74.3424-77.1072-73.728-129.024-0.256-240.64-0.0512-481.28-0.1024-721.92-0.4608-28.2624 5.8368-56.6784 19.5584-81.4592C66.3552 29.8496 113.5616 2.816 162.0992 0m3.7376 64.1024c-42.1888-0.3072-80.1792 37.1712-79.36 79.616-0.512 242.2272 0 484.4032-0.256 726.6304-5.376 47.104 35.6352 92.1088 83.2 89.6512 229.632-0.0512 459.264 0.1536 688.896-0.1536 42.24 0.3072 79.4112-37.2736 79.2064-79.4112 0.4608-242.2784 0-484.608 0.256-726.9376 0.0512-16.1792-1.536-33.024-9.9328-47.2064-13.824-26.368-43.5712-43.0592-73.1648-42.24-229.5808 0-459.2128-0.2048-688.8448 0.0512z" fill="#6D6D6D" p-id="6471"></path><path d="M325.4784 198.6048c76.9024-20.5312 161.1776 40.3968 167.5776 119.296 11.9296 79.5648-58.5216 159.2832-139.3664 154.2144-71.424 0.512-136.192-62.1568-136.9088-133.7856-3.3792-64.8704 45.056-127.0784 108.6976-139.7248m3.2256 63.8976c-23.3984 6.6048-40.2432 27.2896-47.0528 49.9712-13.1584 38.7584 13.056 86.1696 53.2992 94.5664 20.5824 2.6112 43.6736 2.048 60.6208-11.52 24.9344-16.5888 37.1712-48.64 30.5664-77.7728-8.0896-42.4448-56.5248-70.5536-97.4336-55.2448zM601.0368 248.2176c9.1648-3.2256 18.9952-2.3552 28.5184-2.56 41.1136 0.512 82.2272-0.512 123.2896 0.4608 25.2928-0.3072 35.7376 33.7408 21.6064 51.8656-6.3488 11.008-20.2752 11.8784-31.6416 11.8272-41.1648-0.1024-82.3808-0.0512-123.5456 0-10.0352-0.1024-21.9136-1.0752-28.4672-9.7792-13.056-15.36-9.4208-43.9808 10.24-51.8144zM600.6272 361.0112c29.5936-5.7344 60.416-1.1776 90.4704-2.6112 21.9136 0.512 43.8784-1.1776 65.6896 0.8704 27.5456 3.6352 31.8976 45.8752 9.5232 59.2896-10.5984 4.9152-22.5792 3.6864-33.8944 3.9424-40.9088-0.6144-81.8688 0.6656-122.7776-0.6144-30.6688-1.1264-35.9424-50.0224-9.0112-60.8768zM247.5008 621.9776c5.9392-1.8432 12.032-2.6624 18.2784-2.5088 164.096 0.0512 328.192 0.1024 492.2368 0 12.0832-0.4608 26.368 2.4064 32 14.4896 12.5952 19.968-1.3824 52.224-27.136 49.4592-165.5296 0.3072-331.1104-0.0512-496.64 0.1536-11.3152 0.1024-25.0368-1.5872-31.1296-12.5952-10.5984-15.5648-6.2464-41.7792 12.3904-48.9984zM246.8864 764.2624c6.1952-1.9968 12.544-2.9184 19.0976-2.7136 163.8912 0.1024 327.8336 0.1024 491.7248 0 12.3392-0.512 27.0848 2.4576 32.5632 15.0016 12.1856 19.9168-1.8944 51.6608-27.2896 48.9472-168.8064-0.0512-337.664 0.6144-506.4192-0.3584-31.0272-0.512-36.7616-49.92-9.6768-60.8768z" fill="#6D6D6D" p-id="6472"></path></svg>