<?xml version="1.0" standalone="no"?><!DOCTYPE svg PUBLIC "-//W3C//DTD SVG 1.1//EN" "http://www.w3.org/Graphics/SVG/1.1/DTD/svg11.dtd"><svg t="1573242941939" class="icon" viewBox="0 0 1024 1024" version="1.1" xmlns="http://www.w3.org/2000/svg" p-id="3185" xmlns:xlink="http://www.w3.org/1999/xlink" width="200" height="200"><defs><style type="text/css"></style></defs><path d="M512.8 825.6C307.9 825.6 141.2 659 141.2 454c0-205.3 166.6-372 371.6-372s371.6 166.6 371.6 371.6c0.3 205.4-166.7 372-371.6 372z m0-709.1c-186.1 0-337.1 151.4-337.1 337.1s151.1 337.5 337.1 337.5c186.1 0 337.1-151.4 337.1-337.1S698.8 116.5 512.8 116.5z" fill="#989898" p-id="3186"></path><path d="M855.8 471.7H165.6c-8.3 0-14.6-7.9-14.6-17.6s6.7-17.1 14.6-17.1h690.1c8.3 0 15 7.9 15 17.1-0.4 9.7-6.7 17.6-14.9 17.6z" fill="#989898" p-id="3187"></path><path d="M505.3 815.5c13.9 0 22.1-14.6 14.3-25.2-63.3-86.7-101.8-204-101.8-332.9 0-133.9 42-255.3 109.6-343.1 8.2-10.6 0.4-25.6-13.9-25.6h-3c-5.6 0-11.3 2.8-14.3 7.1-68.9 94.5-110.9 221.8-110.9 361.6 0 134.7 39 257.6 102.7 350.6 3 4.7 8.7 7.5 14.7 7.5h2.6z" fill="#989898" p-id="3188"></path><path d="M542 813c-14.4 0-22.9-14.6-14.8-25.2 65.6-86.7 105.6-204 105.6-332.9 0-133.9-43.6-255.3-113.7-343.1-8.5-10.6-0.4-25.6 14.4-25.6h3.1c5.8 0 11.7 2.8 14.8 7.1 71 94.5 115 221.8 115 362C666.4 590.1 626 713 560 805.9c-3.1 4.7-9 7.5-15.3 7.5H542v-0.4z" fill="#989898" p-id="3189"></path></svg>