<?xml version="1.0" standalone="no"?><!DOCTYPE svg PUBLIC "-//W3C//DTD SVG 1.1//EN" "http://www.w3.org/Graphics/SVG/1.1/DTD/svg11.dtd"><svg t="1573243582057" class="icon" viewBox="0 0 1024 1024" version="1.1" xmlns="http://www.w3.org/2000/svg" p-id="8044" xmlns:xlink="http://www.w3.org/1999/xlink" width="200" height="200"><defs><style type="text/css"></style></defs><path d="M363.6 497.7c-27.1-27.1-70.5 10.8-27.1 54.2L472 660.3h0.1L689 416.4c27.1-27.1-5.4-78.6-54.2-27.1L472.1 579l-108.5-81.3z" fill="#666666" p-id="8045"></path><path d="M878.9 199.5s-81.3 13.6-189.8-27.1C637.6 150.7 572.5 96.5 526.4 64h-27.1S485.7 96.5 342 153.5c-56.9 21.7-195.2 46.1-195.2 46.1h-27.1V579c0 189.7 246.8 379.5 379.6 379.5h27.1C659.2 958.5 906 766 906 579V199.5h-27.1zM851.8 579c-21.7 173.5-198 300.9-325.4 325.3h-27.1c-108.5 0-325.4-176.2-325.4-325.3V253.7c113.9-5.4 241.3-56.9 325.4-108.4 2.7 2.7 24.4-2.7 27.1 0 97.6 56.9 198 97.6 325.4 108.4V579z" fill="#666666" p-id="8046"></path></svg>