<?xml version="1.0" standalone="no"?><!DOCTYPE svg PUBLIC "-//W3C//DTD SVG 1.1//EN" "http://www.w3.org/Graphics/SVG/1.1/DTD/svg11.dtd"><svg t="1573065432790" class="icon" viewBox="0 0 1024 1024" version="1.1" xmlns="http://www.w3.org/2000/svg" p-id="33962" xmlns:xlink="http://www.w3.org/1999/xlink" width="200" height="200"><defs><style type="text/css"></style></defs><path d="M512 512m-447.939793 0a447.939793 447.939793 0 1 0 895.879586 0 447.939793 447.939793 0 1 0-895.879586 0Z" fill="#08D19F" p-id="33963"></path><path d="M512 265.633114c-129.324553 0-233.964252 99.702728-233.964252 222.886171 0 87.420508 52.982126 163.762935 130.528692 200.730009 13.486359 6.14111-34.438382 67.672625-13.486359 68.997178 51.657573 3.732832 166.171214-27.093133 217.9492-59.123236 80.075259-41.904045 132.936971-115.71778 132.936971-210.483537 0-123.303857-104.639699-223.006585-233.964252-223.006585z m140.402634 289.354656c-30.825964 51.657573-83.687676 82.483537-141.606773 82.483538-52.982126 0-103.43556-27.093133-135.465663-72.609596-6.14111-8.669802-3.732832-19.747883 4.93697-25.888993 8.669802-6.14111 19.747883-3.732832 25.888994 4.936971 24.56444 35.762935 62.735654 56.594544 104.639699 56.594543 44.312324 0 86.216369-24.684854 109.57667-65.264346 4.936971-8.669802 16.015052-11.078081 25.888993-6.14111 8.549389 6.14111 12.28222 17.219191 6.14111 25.888993z m0 0" fill="#FFFFFF" p-id="33964"></path></svg>