<?xml version="1.0" standalone="no"?><!DOCTYPE svg PUBLIC "-//W3C//DTD SVG 1.1//EN" "http://www.w3.org/Graphics/SVG/1.1/DTD/svg11.dtd"><svg t="1572894962935" class="icon" viewBox="0 0 1024 1024" version="1.1" xmlns="http://www.w3.org/2000/svg" p-id="9339" xmlns:xlink="http://www.w3.org/1999/xlink" width="200" height="200"><defs><style type="text/css"></style></defs><path d="M958.805 571.276h2v1h-2zM493.066 609.509h25.713v236.808h-25.713z" fill="#040000" p-id="9340"></path><path d="M402.097 491.288L521.441 610.63l-18.18 18.18-119.343-119.344z" fill="#040000" p-id="9341"></path><path d="M603.598 491.287l18.18 18.18L502.434 628.81l-18.18-18.18z" fill="#040000" p-id="9342"></path><path d="M373.897 596.652H631.67v25.712H373.897zM393.006 715.872h219.683v25.712H393.006z" fill="#040000" p-id="9343"></path><path d="M703.484 970.131H323.427c-108.447 0-204.34-71.211-235.401-173.958l-0.552-0.226-3.314-7.484s-2.386-11.323-4.419-30.482c-1.582-11.826-2.335-22.046-2.335-31.864-4.47-102.219 16.848-351.606 311.03-447.449l3.993-0.628 258.376 1.256c3.717 1.757 371.493 181.039 293.653 496.137l-1.305 5.449c-0.652 2.812-1.306 5.648-2.135 8.512l-2.912 9.316c-31.888 101.415-126.978 171.421-234.622 171.421zM108.39 778.144l2.662 5.098c25.989 94.889 113.319 161.178 212.375 161.178h380.057c99.382 0 186.814-66.591 212.576-161.931l3.138-12.104c69.805-282.48-245.318-450.588-276.932-466.633H394.487C128.78 391.258 97.87 605.466 103.118 725.563c0 9.216 0.678 18.356 2.159 29.354 1.105 10.546 2.31 18.48 3.113 23.227z" fill="#040000" p-id="9344"></path><path d="M619.343 303.752H414.399c-38.468 0-70.181-50.119-75.73-59.435-11.274-12.73-17.476-28.876-17.476-45.674 0-38.092 31.01-69.101 69.101-69.101 17.476 0 33.446 6.503 45.624 17.25 7.733-29.705 34.776-51.675 66.865-51.675 32.091 0 59.134 21.995 66.867 51.675 12.278-10.797 28.323-17.25 45.625-17.25 38.091 0 69.101 31.009 69.101 69.101 0 12.555-3.541 24.933-10.221 35.856-17.225 42.435-50.066 65.912-51.475 66.916l-3.337 2.337z m-257.246-70.433c8.963 14.188 32.365 44.72 52.303 44.72h196.48c7.86-6.428 29.027-25.637 39.925-54.035l1.205-2.536c4.344-6.98 6.654-14.891 6.654-22.824 0-23.93-19.46-43.389-43.389-43.389-20.741 0-38.618 14.788-42.536 35.153l-2.712 14.11-32.894-10.22 5.574-13.106c2.311-5.398 3.465-11.099 3.465-16.974 0-23.929-19.459-43.389-43.39-43.389-23.929 0-43.388 19.46-43.388 43.389a43.17 43.17 0 0 0 7.331 24.129l8.312 12.38-41.48 19.661v-20.313c0.126-25.361-19.335-44.82-43.264-44.82-23.929 0-43.389 19.459-43.389 43.389 0 10.848 4.168 21.292 11.75 29.428l3.443 5.247zM816.678 599.465h25.712v20.263h-25.712zM632.775 884.382l-2.234-25.612c7.607-0.678 186.137-18.455 186.137-184.328h25.712c0 189.576-207.506 209.764-209.615 209.94z" fill="#040000" p-id="9345"></path></svg>