<?xml version="1.0" standalone="no"?><!DOCTYPE svg PUBLIC "-//W3C//DTD SVG 1.1//EN" "http://www.w3.org/Graphics/SVG/1.1/DTD/svg11.dtd"><svg t="1575868855870" class="icon" viewBox="0 0 1024 1024" version="1.1" xmlns="http://www.w3.org/2000/svg" p-id="4349" xmlns:xlink="http://www.w3.org/1999/xlink" width="200" height="200"><defs><style type="text/css"></style></defs><path d="M241.047 357.471c0 13.157 10.709 23.813 23.886 23.813h494.171c13.122 0 23.832-10.656 23.832-23.814 0-13.176-10.71-23.831-23.832-23.831h-494.171c-13.177-0.018-23.886 10.638-23.886 23.831zM759.122 476.935h-494.19c-13.177 0-23.886 10.656-23.886 23.814s10.709 23.814 23.886 23.814h494.171c13.122 0 23.832-10.656 23.832-23.814s-10.692-23.814-23.814-23.814zM759.122 624.949h-202.825c-13.176 0-23.831 10.656-23.831 23.814 0 13.176 10.656 23.814 23.831 23.814h202.825c13.122 0 23.831-10.62 23.831-23.814 0-13.157-10.709-23.814-23.831-23.814zM759.122 768.228h-202.825c-13.176 0-23.831 10.657-23.831 23.814 0 13.176 10.656 23.831 23.831 23.831h202.825c13.122 0 23.831-10.656 23.831-23.831 0-13.158-10.709-23.814-23.831-23.814zM447.344 602.431l-68.815 105.084-68.454-105.083h-43.614l78.372 115.867h-51.461v28.062h66.006v17.136h-66.006v28.133h66.006v46.764h37.71v-46.764h66.023v-28.133h-66.023v-17.136h66.023v-28.063h-51.461l78.3-115.867zM855.458 165.122h-119.7v-44.010c0-22.679-18.396-41.111-41.076-41.111h-365.347c-22.68 0-41.076 18.432-41.076 41.111v44.010h-119.7c-22.627 0-41.022 17.172-41.022 38.303v702.272c-0.018 21.114 18.378 38.303 41.003 38.303h686.918c22.626 0 41.022-17.19 41.022-38.303v-702.273c0-21.15-18.396-38.303-41.022-38.303zM335.87 212.785v-85.103h352.26v102.401h-352.26v-17.298zM848.87 896.335h-673.74v-683.549h113.111v23.868c0 22.644 18.396 41.112 41.076 41.112h365.347c22.68 0 41.076-18.45 41.076-41.112v-23.868h113.112v683.55z" p-id="4350" data-spm-anchor-id="a313x.7781069.0.i10" class="selected" fill="#bfbfbf"></path></svg>