<?xml version="1.0" encoding="UTF-8"?>
<svg width="155px" height="170px" viewBox="0 0 155 170" version="1.1" xmlns="http://www.w3.org/2000/svg" xmlns:xlink="http://www.w3.org/1999/xlink">
    <!-- Generator: Sketch 61 (89581) - https://sketch.com -->
    <title>意见反馈@2x</title>
    <desc>Created with Sketch.</desc>
    <g id="页面-1" stroke="none" stroke-width="1" fill="none" fill-rule="evenodd">
        <g id="iPhone-8" transform="translate(-1178.000000, -404.000000)" fill="#707070" fill-rule="nonzero">
            <g id="意见反馈" transform="translate(1178.000000, 404.000000)">
                <path d="M137.777778,42.3117803 C135.107666,42.3117803 133.505599,44.720992 133.505599,47.1302037 L133.505599,150.726306 C133.505599,156.147033 129.767442,160.363153 124.96124,160.363153 L17.622739,160.363153 C12.8165375,160.363153 9.07838071,156.147033 9.07838071,150.726306 L9.07838071,29.061116 C9.07838071,23.6403897 12.8165375,19.4242693 17.622739,19.4242693 L104.668389,19.4242693 C107.338501,19.4242693 108.940568,17.0150576 108.940568,14.6058459 C108.940568,12.1966342 106.804479,9.7874225 104.668389,9.7874225 L17.622739,9.7874225 C8.01033592,9.7874225 0,18.8219663 0,29.061116 L0,150.726306 C0,161.567759 8.01033592,170 17.622739,170 L124.96124,170 C134.573643,170 142.583979,161.567759 142.583979,150.726306 L142.583979,47.1302037 C142.049957,44.1186891 140.44789,42.3117803 137.777778,42.3117803 Z M72.6270457,58.5739593 L26.1670973,58.5739593 C23.4969854,58.5739593 21.8949182,60.9831709 21.8949182,63.3923826 C21.8949182,65.8015943 24.0310078,68.210806 26.1670973,68.210806 L72.6270457,68.210806 C75.2971576,68.210806 76.8992248,65.8015943 76.8992248,63.3923826 C76.8992248,60.380868 74.7631352,58.5739593 72.6270457,58.5739593 Z M21.8949182,97.1213463 C21.8949182,99.530558 24.0310078,101.93977 26.1670973,101.93977 L103.066322,101.93977 C105.736434,101.93977 107.338501,99.530558 107.338501,97.1213463 C107.338501,94.7121346 105.202412,92.3029229 103.066322,92.3029229 L26.1670973,92.3029229 C24.0310078,92.3029229 21.8949182,94.7121346 21.8949182,97.1213463 Z M153.79845,1.35518158 C152.196382,-0.451727192 149.52627,-0.451727192 147.390181,1.35518158 L92.9198966,62.1877768 C91.3178295,63.9946856 91.3178295,67.0062002 92.9198966,68.8131089 C94.5219638,70.6200177 97.1920758,70.6200177 99.3281654,68.8131089 L153.79845,7.98051373 C155.400517,6.17360496 155.400517,3.16209035 153.79845,1.35518158 Z" id="形状"></path>
            </g>
        </g>
    </g>
</svg>