<?xml version="1.0" standalone="no"?><!DOCTYPE svg PUBLIC "-//W3C//DTD SVG 1.1//EN" "http://www.w3.org/Graphics/SVG/1.1/DTD/svg11.dtd"><svg t="1575816441844" class="icon" viewBox="0 0 1024 1024" version="1.1" xmlns="http://www.w3.org/2000/svg" p-id="4379" data-spm-anchor-id="a313x.7781069.0.i7" xmlns:xlink="http://www.w3.org/1999/xlink" width="200" height="200"><defs><style type="text/css"></style></defs><path d="M942.545455 404.945455c-4.654545-16.290909-18.618182-27.927273-34.909091-30.254546l-246.690909-37.236364-109.381819-235.054545c-6.981818-16.290909-23.272727-25.6-39.563636-25.6s-32.581818 9.309091-39.563636 25.6l-109.381819 235.054545L116.363636 374.690909c-16.290909 2.327273-30.254545 13.963636-34.909091 30.254546-4.654545 16.290909-2.327273 32.581818 9.309091 44.218181l181.527273 183.854546-16.290909 104.727273c-2.327273 11.636364 6.981818 25.6 18.618182 25.6 11.636364 2.327273 25.6-6.981818 25.6-18.618182l16.290909-104.727273c2.327273-13.963636-2.327273-27.927273-11.636364-37.236364l-176.872727-181.527272L372.363636 384c13.963636-2.327273 27.927273-11.636364 32.581819-25.6L512 128l107.054545 230.4c6.981818 13.963636 18.618182 23.272727 32.581819 25.6l244.363636 37.236364-176.872727 181.527272c-9.309091 9.309091-13.963636 23.272727-11.636364 37.236364l41.890909 256-216.436363-118.690909c-13.963636-6.981818-30.254545-6.981818-41.89091 0l-221.090909 121.018182c-11.636364 6.981818-16.290909 20.945455-9.309091 32.581818 6.981818 11.636364 20.945455 16.290909 32.581819 9.309091l218.763636-121.018182 218.763636 121.018182c6.981818 4.654545 13.963636 4.654545 20.945455 4.654545 9.309091 0 18.618182-2.327273 25.6-6.981818 13.963636-9.309091 20.945455-25.6 18.618182-41.890909l-44.218182-258.327273 181.527273-186.181818c11.636364-13.963636 16.290909-30.254545 9.309091-46.545454z" fill="#707070" p-id="4380" data-spm-anchor-id="a313x.7781069.0.i8" class="selected"></path><path d="M512 640c6.981818 0 11.636364-2.327273 16.290909-6.981818l104.727273-104.727273c9.309091-9.309091 9.309091-23.272727 0-32.581818s-23.272727-9.309091-32.581818 0L512 584.145455l-88.436364-88.436364c-9.309091-9.309091-23.272727-9.309091-32.581818 0s-9.309091 23.272727 0 32.581818l104.727273 104.727273c4.654545 4.654545 9.309091 6.981818 16.290909 6.981818z" fill="#707070" p-id="4381" data-spm-anchor-id="a313x.7781069.0.i9" class="selected"></path></svg>