<?xml version="1.0" standalone="no"?><!DOCTYPE svg PUBLIC "-//W3C//DTD SVG 1.1//EN" "http://www.w3.org/Graphics/SVG/1.1/DTD/svg11.dtd"><svg t="1576592501348" class="icon" viewBox="0 0 1024 1024" version="1.1" xmlns="http://www.w3.org/2000/svg" p-id="23191" xmlns:xlink="http://www.w3.org/1999/xlink" width="140" height="140"><defs><style type="text/css"></style></defs><path d="M759.62401792 498.04708864c-113.70156146 0-206.20364003 92.48577763-206.20364003 206.16521728 0 62.79858176 28.23066169 119.11902663 72.65783238 156.96676637 0.49598919 0.47736149 1.0036224 0.94657195 1.53570532 1.39831864 0.65899065 0.5600256 1.34126819 1.07464477 2.03053056 1.57412694 35.49469923 28.89547435 80.74618994 46.24696434 129.97957063 46.24696434 113.66081195 0 206.13145373-92.49392754 206.13145373-206.18617515C965.75547165 590.53170119 873.28599381 498.04708864 759.62401792 498.04708864zM759.62401792 564.05330375c23.35692345 0 45.3912064 5.75278194 64.77671993 15.90543474L647.46980466 788.23016562c-17.60064853-23.42910976-28.04204658-52.52600718-28.04204658-84.0178597C619.42775808 626.92872875 682.31948402 564.05330375 759.62401792 564.05330375zM759.62401792 844.38993693c-21.95511182 0-42.74592882-5.07749035-61.26520547-14.11241984l175.71540878-206.83934493c16.16390827 22.84579726 25.67387022 50.72018546 25.67387022 80.77413376C899.74809259 781.50752597 836.88896626 844.38993693 759.62401792 844.38993693z" p-id="23192" data-spm-anchor-id="a313x.7781069.0.i32" class="selected" fill="#707070"></path><path d="M517.58570496 790.00338659L125.99136483 790.00338659c16.58771115-163.13636523 154.76391936-290.85953251 322.21167048-290.85953251 43.21513927 0 85.25783381 8.49586062 124.95796679 25.25123129 16.79495623 7.09055715 36.15252594-0.78124146 43.23959011-17.57270471 7.08822813-16.7926272-0.78007751-36.15252594-17.57270471-43.23959012-4.55239339-1.92108658-9.13855147-3.72341533-13.74101049-5.46403669 13.80737479-9.15368733 26.80323641-19.75226595 38.78266766-31.73519019 46.90129806-46.91294094 72.73234773-109.29586973 72.73234774-175.65603043 0-66.36714667-25.83104967-128.75589746-72.73234774-175.67000235-46.90828288-46.92225479-109.29470464-72.76261945-175.66650936-72.76261945-136.96766976 0-248.3988571 111.44632206-248.3988571 248.43262066 0 86.41164971 44.35498439 162.64503296 111.48241578 207.16418276-4.97619741 1.86869305-9.93027299 3.8165595-14.84592583 5.89482552-46.42975858 19.63816505-88.12316445 47.7442469-123.9205797 83.53700523-35.79858034 35.79508736-63.90815517 77.48616419-83.54748416 123.91475769-20.34256327 48.0877147-30.65705358 99.15020288-30.65705358 151.7693531 0 18.22703957 14.77606855 33.00427207 33.00427207 33.00427207l426.26704726 0c18.22703957 0 33.00427207-14.77606855 33.00427206-33.00427207S535.81274453 790.00338659 517.58570496 790.00338659zM265.81272235 250.72636928c0-100.59043499 81.81967075-182.42640555 182.39031296-182.42640555s182.39031296 81.83597056 182.39031296 182.42640555c0 100.58112114-81.81967075 182.40894179-182.39031296 182.40894179S265.81272235 351.30748928 265.81272235 250.72636928z" p-id="23193" data-spm-anchor-id="a313x.7781069.0.i33" class="selected" fill="#707070"></path></svg>