<?xml version="1.0" encoding="UTF-8"?>
<svg width="170px" height="170px" viewBox="0 0 170 170" version="1.1" xmlns="http://www.w3.org/2000/svg" xmlns:xlink="http://www.w3.org/1999/xlink">
    <!-- Generator: Sketch 61 (89581) - https://sketch.com -->
    <title>刷新包</title>
    <desc>Created with Sketch.</desc>
    <g id="页面-1" stroke="none" stroke-width="1" fill="none" fill-rule="evenodd">
        <g id="iPhone-8" transform="translate(-1368.000000, -404.000000)" fill="#707070" fill-rule="nonzero">
            <g id="KHCFDC_刷新" transform="translate(1368.000000, 404.000000)">
                <path d="M84.8691998,0.0207149518 C81.6873817,0.0207149518 79.5661695,2.1419271 79.5661695,5.32374524 C79.5661695,8.50556338 81.6873817,10.6267755 84.8691998,10.6267755 C126.232836,10.6267755 159.111624,43.5055635 159.111624,84.8691998 C159.111624,126.232836 126.232836,159.111624 84.8691998,159.111624 C43.5055635,159.111624 10.6267755,126.232836 10.6267755,84.8691998 C10.6267755,62.5964725 20.1722301,42.4449575 37.141927,27.5964726 L37.141927,47.7479878 C37.141927,50.9298059 39.2631392,53.0510181 42.4449575,53.0510181 C45.6267758,53.0510181 47.7479878,50.9298059 47.7479878,47.7479878 L47.7479878,15.9298058 C47.7479878,12.7479877 45.6267756,10.6267755 42.4449575,10.6267755 L10.6267755,10.6267755 C7.4449574,10.6267755 5.32374524,12.7479877 5.32374524,15.9298058 C5.32374524,19.111624 7.4449574,21.2328361 10.6267755,21.2328361 L28.6570786,21.2328361 C10.6267755,37.141927 0.0207149518,60.4752605 0.0207149518,84.8691998 C0.0207149518,131.535866 38.2025332,169.717685 84.8691998,169.717685 C131.535866,169.717685 169.717685,131.535866 169.717685,84.8691998 C169.717685,38.2025332 131.535866,0.0207149518 84.8691998,0.0207149518 Z" id="路径"></path>
                <path d="M113.505563,116.687382 L91.2328361,94.4146544 L90.1722301,94.4146544 L90.1722301,42.4449575 C90.1722301,39.2631393 88.051018,37.141927 84.8691998,37.141927 C81.6873817,37.141927 79.5661695,39.2631392 79.5661695,42.4449575 L79.5661695,95.4752604 C79.5661695,97.5964725 80.6267755,99.7176847 82.7479877,99.7176847 C82.7479877,99.7176847 82.7479877,100.778291 83.8085938,100.778291 L106.081321,123.051018 C108.202533,125.17223 111.384351,125.17223 113.505563,123.051018 C115.626776,121.990412 115.626776,118.808594 113.505563,116.687382 L113.505563,116.687382 Z" id="路径"></path>
            </g>
        </g>
    </g>
</svg>