<?xml version="1.0" standalone="no"?><!DOCTYPE svg PUBLIC "-//W3C//DTD SVG 1.1//EN" "http://www.w3.org/Graphics/SVG/1.1/DTD/svg11.dtd"><svg t="1576592301976" class="icon" viewBox="0 0 1024 1024" version="1.1" xmlns="http://www.w3.org/2000/svg" p-id="21615" xmlns:xlink="http://www.w3.org/1999/xlink" width="140" height="140"><defs><style type="text/css"></style></defs><path d="M953.969017 851.992461H835.543837v118.413923c0 16.347317-13.260002 29.601178-29.610388 29.601179-16.33299 0-29.591969-13.253862-29.591969-29.601179V851.992461H657.916301c-16.350386 0-29.610388-13.260002-29.610388-29.613458 0-16.341177 13.260002-29.595039 29.610388-29.595039h118.425179v-118.416993c0-16.356526 13.260002-29.604248 29.591969-29.604248 16.350386 0 29.610388 13.247722 29.610388 29.604248v118.416993h118.42518c16.32992 0 29.591969 13.253862 29.591969 29.595039 0.001023 16.353456-13.262048 29.613458-29.591969 29.613458zM716.200752 509.128603c20.536732 7.625678 38.509059 20.361747 56.463989 30.528294 5.124717 5.082762 10.287297 12.729929 12.848633 20.367886 0 7.631818 0 15.269775-5.142114 22.901593-10.269901 15.269775-30.803563 20.358677-43.633776 10.180873-23.100114-15.272845-51.321876-27.999704-79.564104-38.174437-87.228667 50.895157-202.720028 53.441143-292.533566 0C205.535143 613.468996 97.769744 766.155491 97.769744 936.669002c0 17.815761-12.850679 30.53341-30.824029 30.533411-17.954931 0-30.785144-12.717649-30.785144-30.533411 0-183.229115 107.785865-348.653725 274.578636-425.000553-53.882188-53.447283-84.688821-124.701117-84.688821-201.047946 0-157.784606 125.761262-287.574624 284.845467-287.574624 159.128207 0 287.429315 127.247102 287.429315 285.034778 0 40.720424-7.705496 78.894861-23.100115 114.518197-12.830213 33.082466-33.345456 61.0791-59.024301 86.529749zM510.895853 89.211834c-123.155924 0-223.236294 99.248422-223.236294 221.409693 0 122.155131 100.079346 221.409692 223.236294 221.409692 59.048861 0 115.51285-22.901593 156.546405-63.622016 20.554128-20.361747 38.509059-43.263339 48.758494-68.713988 12.848633-27.990494 17.972327-58.533115 17.972327-89.072665 0-122.154108-100.079346-221.410716-223.277226-221.410716z" p-id="21616" data-spm-anchor-id="a313x.7781069.0.i28" class="selected" fill="#707070"></path></svg>