<?xml version="1.0" encoding="UTF-8"?>
<svg width="187px" height="191px" viewBox="0 0 187 191" version="1.1" xmlns="http://www.w3.org/2000/svg" xmlns:xlink="http://www.w3.org/1999/xlink">
    <!-- Generator: Sketch 61 (89581) - https://sketch.com -->
    <title>yaoqingipt</title>
    <desc>Created with Sketch.</desc>
    <g id="页面-1" stroke="none" stroke-width="1" fill="none" fill-rule="evenodd">
        <g id="iPhone-8" transform="translate(-677.000000, -224.000000)" fill="#707070" fill-rule="nonzero">
            <g id="邀请码-(1)" transform="translate(677.000000, 224.000000)">
                <path d="M16.8692572,191 C7.57677037,190.94044 0.058004792,183.205991 1.47876752e-05,173.64694 L1.47876752e-05,73.0210209 C-0.0171507392,67.6010617 2.41312435,62.4801145 6.57801403,59.1604008 L80.8447167,3.49964283 C83.8908181,1.12543154 87.6341231,-0.106787817 91.4542456,0.00720316211 C95.0015193,-0.032232117 98.4649015,1.11703657 101.321107,3.28136545 L178.982859,59.051262 C183.508679,62.261136 186.176017,67.5850312 186.091244,73.2392984 L186.091244,173.64694 C186.033345,183.205991 178.51458,190.94044 169.222093,191 L16.8692572,191 Z M91.1359598,11.6839844 C89.9519509,11.6610005 88.7941667,12.0451929 87.8470058,12.7764358 L13.5803031,68.4371938 C12.2762866,69.5785243 11.5368371,71.2599861 11.5637436,73.0210209 L11.5637436,173.64694 C11.6210535,176.817137 14.1057503,179.37311 17.187543,179.431293 L168.797712,179.431293 C171.856795,179.3188 174.311406,176.793776 174.421112,173.64694 L174.421112,73.2392984 C174.441205,71.4048966 173.564249,69.6826833 172.086666,68.6554713 L94.4249137,12.7764358 C93.4639342,12.0730674 92.3153481,11.6919273 91.1359598,11.6839844 Z" id="形状"></path>
                <path d="M143.865319,159.349765 C142.05724,159.233264 140.372575,158.366769 139.197126,156.948713 L116.598829,126.608143 L68.6437584,126.608143 L44.0296513,156.512158 C42.9222535,157.869977 41.2963918,158.666406 39.5736491,158.694933 L39.7858396,158.694933 C38.2674193,158.748576 36.7867147,158.201794 35.6481233,157.16699 C33.2769987,154.887264 32.9140317,151.153473 34.799361,148.435891 L58.7768965,120.059818 L40.4224114,89.3918321 C38.1481596,85.3397148 38.1481596,80.3473004 40.4224114,76.2951832 C42.5409837,72.2929001 46.6020165,69.7863835 51.0319403,69.7468514 L133.043599,69.7468514 C137.464813,69.7419533 141.548851,72.1769725 143.742388,76.1257798 C145.935926,80.0745871 145.901852,84.930317 143.653128,88.8461384 L126.783977,119.95068 L148.851797,148.435891 C149.857332,149.768294 150.314475,151.453379 150.124941,153.128857 C149.889516,154.797225 149.057153,156.315106 147.790844,157.385268 C146.769805,158.234063 145.496369,158.696404 144.183604,158.694933 L143.865319,159.349765 Z M69.598616,114.493742 L116.068353,114.493742 L133.361885,82.9526463 L50.3953686,82.2978138 L69.598616,114.493742 Z" id="形状"></path>
            </g>
        </g>
    </g>
</svg>