<?xml version="1.0" standalone="no"?><!DOCTYPE svg PUBLIC "-//W3C//DTD SVG 1.1//EN" "http://www.w3.org/Graphics/SVG/1.1/DTD/svg11.dtd"><svg t="1581868326726" class="icon" viewBox="0 0 1024 1024" version="1.1" xmlns="http://www.w3.org/2000/svg" p-id="2591" xmlns:xlink="http://www.w3.org/1999/xlink" width="140" height="140"><defs><style type="text/css"></style></defs><path d="M340.992 170.496H852.48c94.208 0 170.496 76.373333 170.496 170.496V852.48a170.496 170.496 0 0 1-170.496 170.496H340.992A170.496 170.496 0 0 1 170.496 852.48V340.992c0-94.122667 76.373333-170.496 170.496-170.496z" fill="#808F9B" p-id="2592"></path><path d="M170.666667 767.232v85.333333h-0.170667A170.496 170.496 0 0 1 0 681.898667V170.496C0 76.373333 76.373333 0 170.496 0h511.488c93.866667 0 170.069333 75.946667 170.496 169.642667h-85.248A85.333333 85.333333 0 0 0 681.984 85.333333H170.496a85.333333 85.333333 0 0 0-85.248 85.333334v511.402666a85.333333 85.333333 0 0 0 85.333333 85.333334H170.666667z" fill="#808F9B" p-id="2593"></path></svg>